<svg width="26" height="26" viewBox="0 0 26 26" fill="none" xmlns="http://www.w3.org/2000/svg">
<rect width="26" height="26" rx="4" fill="#0EA5E9"/>
<path d="M18.25 12.25H7.75M18.25 12.25C19.0784 12.25 19.75 12.9216 19.75 13.75V18.25C19.75 19.0784 19.0784 19.75 18.25 19.75H7.75C6.92157 19.75 6.25 19.0784 6.25 18.25V13.75C6.25 12.9216 6.92157 12.25 7.75 12.25M18.25 12.25V10.75C18.25 9.92157 17.5784 9.25 16.75 9.25M7.75 12.25V10.75C7.75 9.92157 8.42157 9.25 9.25 9.25M9.25 9.25V7.75C9.25 6.92157 9.92157 6.25 10.75 6.25H15.25C16.0784 6.25 16.75 6.92157 16.75 7.75V9.25M9.25 9.25H16.75" stroke="white" stroke-linecap="round" stroke-linejoin="round"/>
</svg>
