<svg width="22" height="22" viewBox="0 0 22 22" fill="none" xmlns="http://www.w3.org/2000/svg">
<rect width="22" height="22" rx="4" fill="#EC4899"/>
<path d="M11 4.25L11.2236 3.80279C11.0828 3.7324 10.9172 3.7324 10.7764 3.80279L11 4.25ZM17 7.25H17.5C17.5 7.06061 17.393 6.88748 17.2236 6.80279L17 7.25ZM5 7.25L4.77639 6.80279C4.607 6.88748 4.5 7.06061 4.5 7.25H5ZM17 14.75L17.2236 15.1972C17.393 15.1125 17.5 14.9394 17.5 14.75H17ZM11 17.75L10.7764 18.1972C10.9172 18.2676 11.0828 18.2676 11.2236 18.1972L11 17.75ZM5 14.75H4.5C4.5 14.9394 4.607 15.1125 4.77639 15.1972L5 14.75ZM10.7764 4.69721L16.7764 7.69721L17.2236 6.80279L11.2236 3.80279L10.7764 4.69721ZM16.7764 6.80279L10.7764 9.80279L11.2236 10.6972L17.2236 7.69721L16.7764 6.80279ZM11.2236 9.80279L5.22361 6.80279L4.77639 7.69721L10.7764 10.6972L11.2236 9.80279ZM5.22361 7.69721L11.2236 4.69721L10.7764 3.80279L4.77639 6.80279L5.22361 7.69721ZM16.7764 14.3028L10.7764 17.3028L11.2236 18.1972L17.2236 15.1972L16.7764 14.3028ZM11.2236 17.3028L5.22361 14.3028L4.77639 15.1972L10.7764 18.1972L11.2236 17.3028ZM5.5 14.75V7.25H4.5V14.75H5.5ZM17.5 14.75V7.25H16.5V14.75H17.5ZM10.5 10.25V17.75H11.5V10.25H10.5Z" fill="white"/>
</svg>
