<svg width="210" height="177" viewBox="0 0 210 177" fill="none" xmlns="http://www.w3.org/2000/svg">
<path d="M202.481 91.0417C202.481 114.59 192.862 135.816 177.44 151.073C162.349 166.163 141.455 175.284 118.404 175.284C95.5191 175.284 74.6243 165.998 59.3678 151.073C43.9454 135.816 34.3271 114.59 34.3271 91.0417C34.3271 44.4429 71.971 6.79907 118.404 6.79907C164.837 6.79907 202.481 44.6087 202.481 91.0417Z" fill="#F1F3F9" stroke="#D6DCE8" stroke-width="2" stroke-miterlimit="10"/>
<path d="M195.184 35.8196C198.939 35.8196 201.983 32.7755 201.983 29.0205C201.983 25.2654 198.939 22.2214 195.184 22.2214C191.429 22.2214 188.385 25.2654 188.385 29.0205C188.385 32.7755 191.429 35.8196 195.184 35.8196Z" fill="#F1F3F9"/>
<path d="M205.134 9.28658C207.699 9.28658 209.778 7.20771 209.778 4.64329C209.778 2.07887 207.699 0 205.134 0C202.57 0 200.491 2.07887 200.491 4.64329C200.491 7.20771 202.57 9.28658 205.134 9.28658Z" fill="#F1F3F9"/>
<path d="M36.9802 35.6538C39.5446 35.6538 41.6235 33.5749 41.6235 31.0105C41.6235 28.4461 39.5446 26.3672 36.9802 26.3672C34.4158 26.3672 32.3369 28.4461 32.3369 31.0105C32.3369 33.5749 34.4158 35.6538 36.9802 35.6538Z" fill="#F1F3F9"/>
<path d="M8.62326 125.203C13.3857 125.203 17.2465 121.342 17.2465 116.58C17.2465 111.817 13.3857 107.956 8.62326 107.956C3.86076 107.956 0 111.817 0 116.58C0 121.342 3.86076 125.203 8.62326 125.203Z" fill="#F1F3F9"/>
<path d="M177.439 46.9304V151.073C162.349 166.164 141.454 175.284 118.403 175.284C95.5185 175.284 74.6237 165.998 59.3672 151.073V46.9304H177.439Z" fill="white" stroke="#D6DCE8" stroke-width="2" stroke-miterlimit="10"/>
<path d="M112.671 92.2673L139.437 65.5018L147.293 73.3582L112.819 107.833L112.781 107.794L112.633 107.942L89.5332 84.8418L97.3896 76.9854L112.671 92.2673Z" fill="#D1FAE5" stroke="#34D399" stroke-width="2" stroke-miterlimit="10"/>
<path d="M148.585 122.052H88.2227V129.68H148.585V122.052Z" fill="#D6DCE8"/>
<path d="M148.585 138.801H88.2227V146.43H148.585V138.801Z" fill="#D6DCE8"/>
<path d="M133.825 155.716H102.98V163.344H133.825V155.716Z" fill="#D6DCE8"/>
</svg>
