<svg width="124" height="192" viewBox="0 0 124 192" fill="none" xmlns="http://www.w3.org/2000/svg">
<circle cx="4" cy="16" r="4" fill="#6395F9"/>
<path d="M23.1777 3.39258V4.41797H20.2773V12H19.0938V4.41797H16.1934V3.39258H23.1777ZM26.3996 11.3203C27.0988 11.3203 27.5773 11.0566 27.8352 10.5293C28.0969 9.99805 28.2277 9.4082 28.2277 8.75977C28.2277 8.17383 28.134 7.69727 27.9465 7.33008C27.6496 6.75195 27.1379 6.46289 26.4113 6.46289C25.7668 6.46289 25.298 6.70898 25.0051 7.20117C24.7121 7.69336 24.5656 8.28711 24.5656 8.98242C24.5656 9.65039 24.7121 10.207 25.0051 10.6523C25.298 11.0977 25.7629 11.3203 26.3996 11.3203ZM26.4406 5.54297C27.2492 5.54297 27.9328 5.8125 28.4914 6.35156C29.05 6.89062 29.3293 7.68359 29.3293 8.73047C29.3293 9.74219 29.0832 10.5781 28.591 11.2383C28.0988 11.8984 27.3352 12.2285 26.3 12.2285C25.4367 12.2285 24.7512 11.9375 24.2434 11.3555C23.7355 10.7695 23.4816 9.98438 23.4816 9C23.4816 7.94531 23.7492 7.10547 24.2844 6.48047C24.8195 5.85547 25.5383 5.54297 26.4406 5.54297ZM27.0734 3.32812L28.2688 5.02148H27.3078L26.5168 3.89648L25.7258 5.02148H24.7707L25.9602 3.32812H27.0734ZM28.2043 2.4375C28.1457 2.39844 28.0852 2.37109 28.0227 2.35547C27.9641 2.33594 27.8898 2.32617 27.8 2.32617C27.7063 2.32617 27.5793 2.33789 27.4191 2.36133L27.3957 1.89844C27.4816 1.88672 27.5656 1.87695 27.6477 1.86914C27.7336 1.86133 27.8156 1.85742 27.8938 1.85742C28.093 1.85742 28.2766 1.89063 28.4445 1.95703C28.6125 2.01953 28.7609 2.14258 28.8898 2.32617C28.925 2.37695 28.9543 2.44336 28.9777 2.52539C29.0051 2.60742 29.0188 2.69531 29.0188 2.78906C29.0188 2.86719 29.007 2.94727 28.9836 3.0293C28.9602 3.11133 28.9191 3.18945 28.8605 3.26367C28.802 3.33398 28.7219 3.39648 28.6203 3.45117C28.5227 3.50586 28.3996 3.54883 28.2512 3.58008L28.2277 3.83789H27.7121V3.39258C27.9465 3.36914 28.1262 3.30078 28.2512 3.1875C28.3801 3.07031 28.4445 2.94531 28.4445 2.8125C28.4445 2.74219 28.425 2.67578 28.3859 2.61328C28.3469 2.54688 28.2863 2.48828 28.2043 2.4375ZM30.3891 5.72461H31.391V6.61523C31.6879 6.24805 32.0023 5.98438 32.3344 5.82422C32.6664 5.66406 33.0355 5.58398 33.4418 5.58398C34.3324 5.58398 34.934 5.89453 35.2465 6.51562C35.4184 6.85547 35.5043 7.3418 35.5043 7.97461V12H34.432V8.04492C34.432 7.66211 34.3754 7.35352 34.2621 7.11914C34.0746 6.72852 33.7348 6.5332 33.2426 6.5332C32.9926 6.5332 32.7875 6.55859 32.6273 6.60938C32.3383 6.69531 32.0844 6.86719 31.8656 7.125C31.6898 7.33203 31.5746 7.54688 31.5199 7.76953C31.4691 7.98828 31.4438 8.30273 31.4438 8.71289V12H30.3891V5.72461ZM39.0836 5.61328C39.5758 5.61328 40.0055 5.73438 40.3727 5.97656C40.5719 6.11328 40.775 6.3125 40.982 6.57422V5.7832H41.9547V11.4902C41.9547 12.2871 41.8375 12.916 41.6031 13.377C41.1656 14.2285 40.3395 14.6543 39.1246 14.6543C38.4488 14.6543 37.8805 14.502 37.4195 14.1973C36.9586 13.8965 36.7008 13.4238 36.6461 12.7793H37.7184C37.7691 13.0605 37.8707 13.2773 38.023 13.4297C38.2613 13.6641 38.6363 13.7812 39.148 13.7812C39.9566 13.7812 40.4859 13.4961 40.7359 12.9258C40.8844 12.5898 40.9527 11.9902 40.941 11.127C40.7301 11.4473 40.4762 11.6855 40.1793 11.8418C39.8824 11.998 39.4898 12.0762 39.0016 12.0762C38.3219 12.0762 37.7262 11.8359 37.2145 11.3555C36.7066 10.8711 36.4527 10.0723 36.4527 8.95898C36.4527 7.9082 36.7086 7.08789 37.2203 6.49805C37.7359 5.9082 38.357 5.61328 39.0836 5.61328ZM40.982 8.83594C40.982 8.05859 40.8219 7.48242 40.5016 7.10742C40.1812 6.73242 39.773 6.54492 39.277 6.54492C38.5348 6.54492 38.027 6.89258 37.7535 7.58789C37.609 7.95898 37.5367 8.44531 37.5367 9.04688C37.5367 9.75391 37.6793 10.293 37.9645 10.6641C38.2535 11.0312 38.6402 11.2148 39.1246 11.2148C39.8824 11.2148 40.4156 10.873 40.7242 10.1895C40.8961 9.80273 40.982 9.35156 40.982 8.83594ZM47.1152 10.0312C47.1465 10.3828 47.2344 10.6523 47.3789 10.8398C47.6445 11.1797 48.1055 11.3496 48.7617 11.3496C49.1523 11.3496 49.4961 11.2656 49.793 11.0977C50.0898 10.9258 50.2383 10.6621 50.2383 10.3066C50.2383 10.0371 50.1191 9.83203 49.8809 9.69141C49.7285 9.60547 49.4277 9.50586 48.9785 9.39258L48.1406 9.18164C47.6055 9.04883 47.2109 8.90039 46.957 8.73633C46.5039 8.45117 46.2773 8.05664 46.2773 7.55273C46.2773 6.95898 46.4902 6.47852 46.916 6.11133C47.3457 5.74414 47.9219 5.56055 48.6445 5.56055C49.5898 5.56055 50.2715 5.83789 50.6895 6.39258C50.9512 6.74414 51.0781 7.12305 51.0703 7.5293H50.0742C50.0547 7.29102 49.9707 7.07422 49.8223 6.87891C49.5801 6.60156 49.1602 6.46289 48.5625 6.46289C48.1641 6.46289 47.8613 6.53906 47.6543 6.69141C47.4512 6.84375 47.3496 7.04492 47.3496 7.29492C47.3496 7.56836 47.4844 7.78711 47.7539 7.95117C47.9102 8.04883 48.1406 8.13477 48.4453 8.20898L49.1426 8.37891C49.9004 8.5625 50.4082 8.74023 50.666 8.91211C51.0762 9.18164 51.2812 9.60547 51.2812 10.1836C51.2812 10.7422 51.0684 11.2246 50.6426 11.6309C50.2207 12.0371 49.5762 12.2402 48.709 12.2402C47.7754 12.2402 47.1133 12.0293 46.7227 11.6074C46.3359 11.1816 46.1289 10.6562 46.1016 10.0312H47.1152ZM54.7785 11.3203C55.4777 11.3203 55.9562 11.0566 56.2141 10.5293C56.4758 9.99805 56.6066 9.4082 56.6066 8.75977C56.6066 8.17383 56.5129 7.69727 56.3254 7.33008C56.0285 6.75195 55.5168 6.46289 54.7902 6.46289C54.1457 6.46289 53.677 6.70898 53.384 7.20117C53.091 7.69336 52.9445 8.28711 52.9445 8.98242C52.9445 9.65039 53.091 10.207 53.384 10.6523C53.677 11.0977 54.1418 11.3203 54.7785 11.3203ZM54.8195 5.54297C55.6281 5.54297 56.3117 5.8125 56.8703 6.35156C57.4289 6.89062 57.7082 7.68359 57.7082 8.73047C57.7082 9.74219 57.4621 10.5781 56.9699 11.2383C56.4777 11.8984 55.7141 12.2285 54.6789 12.2285C53.8156 12.2285 53.1301 11.9375 52.6223 11.3555C52.1145 10.7695 51.8605 9.98438 51.8605 9C51.8605 7.94531 52.1281 7.10547 52.6633 6.48047C53.1984 5.85547 53.9172 5.54297 54.8195 5.54297ZM55.4523 3.29883L56.6477 4.99219H55.6867L54.8957 3.86719L54.1047 4.99219H53.1496L54.3391 3.29883H55.4523ZM58.1711 2.16797L56.6066 3.86133H55.798L56.8703 2.16797H58.1711ZM62.5758 8.93555C62.5758 9.60742 62.7184 10.1699 63.0035 10.623C63.2887 11.0762 63.7457 11.3027 64.3746 11.3027C64.8629 11.3027 65.2633 11.0938 65.5758 10.6758C65.8922 10.2539 66.0504 9.65039 66.0504 8.86523C66.0504 8.07227 65.8883 7.48633 65.5641 7.10742C65.2398 6.72461 64.8395 6.5332 64.3629 6.5332C63.8316 6.5332 63.4 6.73633 63.068 7.14258C62.7398 7.54883 62.5758 8.14648 62.5758 8.93555ZM64.1637 5.61328C64.6441 5.61328 65.0465 5.71484 65.3707 5.91797C65.5582 6.03516 65.7711 6.24023 66.0094 6.5332V3.36328H67.023V12H66.0738V11.127C65.8277 11.5137 65.5367 11.793 65.2008 11.9648C64.8648 12.1367 64.4801 12.2227 64.0465 12.2227C63.3473 12.2227 62.7418 11.9297 62.2301 11.3438C61.7184 10.7539 61.4625 9.9707 61.4625 8.99414C61.4625 8.08008 61.6949 7.28906 62.1598 6.62109C62.6285 5.94922 63.2965 5.61328 64.1637 5.61328ZM69.4422 5.72461V9.89062C69.4422 10.2109 69.493 10.4727 69.5945 10.6758C69.782 11.0508 70.1316 11.2383 70.6434 11.2383C71.3777 11.2383 71.8777 10.9102 72.1434 10.2539C72.2879 9.90234 72.3602 9.41992 72.3602 8.80664V5.72461H73.4148V6.63281C73.493 6.63672 73.5789 6.62891 73.6727 6.60938C73.8602 6.59766 74.0301 6.56055 74.1824 6.49805L74.2469 6.46875C74.2664 6.45703 74.2859 6.44141 74.3055 6.42188L74.0652 5.83594L75.243 5.34375L75.7234 6.50391L74.6277 6.95508C74.2098 7.13086 73.8055 7.21094 73.4148 7.19531V12H72.4188L72.4305 11.0742C72.2938 11.3125 72.1238 11.5137 71.9207 11.6777C71.5184 12.0059 71.0301 12.1699 70.4559 12.1699C69.5613 12.1699 68.952 11.8711 68.6277 11.2734C68.452 10.9531 68.3641 10.5254 68.3641 9.99023V5.72461H69.4422ZM16.75 19.3926H17.7637V24.3906L20.4707 21.7246H21.8184L19.416 24.0742L21.9531 28H20.6055L18.6484 24.8359L17.7637 25.6445V28H16.75V19.3926ZM22.5734 19.3633H23.6281V22.5742C23.8781 22.2578 24.1027 22.0352 24.302 21.9062C24.6418 21.6836 25.0656 21.5723 25.5734 21.5723C26.4836 21.5723 27.1008 21.8906 27.425 22.5273C27.6008 22.875 27.6887 23.3574 27.6887 23.9746V28H26.6047V24.0449C26.6047 23.584 26.5461 23.2461 26.4289 23.0312C26.2375 22.6875 25.8781 22.5156 25.3508 22.5156C24.9133 22.5156 24.5168 22.666 24.1613 22.9668C23.8059 23.2676 23.6281 23.8359 23.6281 24.6719V28H22.5734V19.3633ZM29.8617 26.3301C29.8617 26.6348 29.973 26.875 30.1957 27.0508C30.4184 27.2266 30.682 27.3145 30.9867 27.3145C31.3578 27.3145 31.7172 27.2285 32.0648 27.0566C32.6508 26.7715 32.9438 26.3047 32.9438 25.6562V24.8066C32.8148 24.8887 32.6488 24.957 32.4457 25.0117C32.2426 25.0664 32.0434 25.1055 31.848 25.1289L31.2094 25.2109C30.8266 25.2617 30.5395 25.3418 30.348 25.4512C30.0238 25.6348 29.8617 25.9277 29.8617 26.3301ZM32.4164 24.1973C32.6586 24.166 32.8207 24.0645 32.9027 23.8926C32.9496 23.7988 32.973 23.6641 32.973 23.4883C32.973 23.1289 32.8441 22.8691 32.5863 22.709C32.3324 22.5449 31.9672 22.4629 31.4906 22.4629C30.9398 22.4629 30.5492 22.6113 30.3188 22.9082C30.1898 23.0723 30.1059 23.3164 30.0668 23.6406H29.0824C29.102 22.8672 29.352 22.3301 29.8324 22.0293C30.3168 21.7246 30.8773 21.5723 31.5141 21.5723C32.2523 21.5723 32.852 21.7129 33.3129 21.9941C33.7699 22.2754 33.9984 22.7129 33.9984 23.3066V26.9219C33.9984 27.0312 34.0199 27.1191 34.0629 27.1855C34.1098 27.252 34.2055 27.2852 34.35 27.2852C34.3969 27.2852 34.4496 27.2832 34.5082 27.2793C34.5668 27.2715 34.6293 27.2617 34.6957 27.25V28.0293C34.5316 28.0762 34.4066 28.1055 34.3207 28.1172C34.2348 28.1289 34.1176 28.1348 33.9691 28.1348C33.6059 28.1348 33.3422 28.0059 33.1781 27.748C33.0922 27.6113 33.0316 27.418 32.9965 27.168C32.7816 27.4492 32.473 27.6934 32.0707 27.9004C31.6684 28.1074 31.225 28.2109 30.7406 28.2109C30.1586 28.2109 29.682 28.0352 29.3109 27.6836C28.9438 27.3281 28.7602 26.8848 28.7602 26.3535C28.7602 25.7715 28.9418 25.3203 29.3051 25C29.6684 24.6797 30.1449 24.4824 30.7348 24.4082L32.4164 24.1973ZM31.8539 19.8555C31.7953 19.8164 31.7348 19.7891 31.6723 19.7734C31.6137 19.7539 31.5395 19.7441 31.4496 19.7441C31.3559 19.7441 31.2289 19.7559 31.0688 19.7793L31.0453 19.3164C31.1313 19.3047 31.2152 19.2949 31.2973 19.2871C31.3832 19.2793 31.4652 19.2754 31.5434 19.2754C31.7426 19.2754 31.9262 19.3086 32.0941 19.375C32.2621 19.4375 32.4105 19.5605 32.5395 19.7441C32.5746 19.7949 32.6039 19.8613 32.6273 19.9434C32.6547 20.0254 32.6684 20.1133 32.6684 20.207C32.6684 20.2852 32.6566 20.3652 32.6332 20.4473C32.6098 20.5293 32.5688 20.6074 32.5102 20.6816C32.4516 20.752 32.3715 20.8145 32.2699 20.8691C32.1723 20.9238 32.0492 20.9668 31.9008 20.998L31.8773 21.2559H31.3617V20.8105C31.5961 20.7871 31.7758 20.7188 31.9008 20.6055C32.0297 20.4883 32.0941 20.3633 32.0941 20.2305C32.0941 20.1602 32.0746 20.0938 32.0355 20.0312C31.9965 19.9648 31.9359 19.9062 31.8539 19.8555ZM39.3406 24.9355C39.3406 25.6074 39.4832 26.1699 39.7684 26.623C40.0535 27.0762 40.5105 27.3027 41.1395 27.3027C41.6277 27.3027 42.0281 27.0938 42.3406 26.6758C42.657 26.2539 42.8152 25.6504 42.8152 24.8652C42.8152 24.0723 42.6531 23.4863 42.3289 23.1074C42.0047 22.7246 41.6043 22.5332 41.1277 22.5332C40.5965 22.5332 40.1648 22.7363 39.8328 23.1426C39.5047 23.5488 39.3406 24.1465 39.3406 24.9355ZM40.9285 21.6133C41.409 21.6133 41.8113 21.7148 42.1355 21.918C42.323 22.0352 42.5359 22.2402 42.7742 22.5332V19.3633H43.7879V28H42.8387V27.127C42.5926 27.5137 42.3016 27.793 41.9656 27.9648C41.6297 28.1367 41.2449 28.2227 40.8113 28.2227C40.1121 28.2227 39.5066 27.9297 38.9949 27.3438C38.4832 26.7539 38.2273 25.9707 38.2273 24.9941C38.2273 24.0801 38.4598 23.2891 38.9246 22.6211C39.3934 21.9492 40.0613 21.6133 40.9285 21.6133ZM46.207 21.7246V25.8906C46.207 26.2109 46.2578 26.4727 46.3594 26.6758C46.5469 27.0508 46.8965 27.2383 47.4082 27.2383C48.1426 27.2383 48.6426 26.9102 48.9082 26.2539C49.0527 25.9023 49.125 25.4199 49.125 24.8066V21.7246H50.1797V28H49.1836L49.1953 27.0742C49.0586 27.3125 48.8887 27.5137 48.6855 27.6777C48.2832 28.0059 47.7949 28.1699 47.2207 28.1699C46.3262 28.1699 45.7168 27.8711 45.3926 27.2734C45.2168 26.9531 45.1289 26.5254 45.1289 25.9902V21.7246H46.207ZM47.0215 28.7617H48.1172V29.9805H47.0215V28.7617ZM51.632 21.7246H52.634V22.6152C52.9309 22.248 53.2453 21.9844 53.5773 21.8242C53.9094 21.6641 54.2785 21.584 54.6848 21.584C55.5754 21.584 56.177 21.8945 56.4895 22.5156C56.6613 22.8555 56.7473 23.3418 56.7473 23.9746V28H55.675V24.0449C55.675 23.6621 55.6184 23.3535 55.5051 23.1191C55.3176 22.7285 54.9777 22.5332 54.4855 22.5332C54.2355 22.5332 54.0305 22.5586 53.8703 22.6094C53.5812 22.6953 53.3273 22.8672 53.1086 23.125C52.9328 23.332 52.8176 23.5469 52.7629 23.7695C52.7121 23.9883 52.6867 24.3027 52.6867 24.7129V28H51.632V21.7246ZM60.3266 21.6133C60.8187 21.6133 61.2484 21.7344 61.6156 21.9766C61.8148 22.1133 62.018 22.3125 62.225 22.5742V21.7832H63.1977V27.4902C63.1977 28.2871 63.0805 28.916 62.8461 29.377C62.4086 30.2285 61.5824 30.6543 60.3676 30.6543C59.6918 30.6543 59.1234 30.502 58.6625 30.1973C58.2016 29.8965 57.9437 29.4238 57.8891 28.7793H58.9613C59.0121 29.0605 59.1137 29.2773 59.266 29.4297C59.5043 29.6641 59.8793 29.7812 60.391 29.7812C61.1996 29.7812 61.7289 29.4961 61.9789 28.9258C62.1273 28.5898 62.1957 27.9902 62.184 27.127C61.973 27.4473 61.7191 27.6855 61.4223 27.8418C61.1254 27.998 60.7328 28.0762 60.2445 28.0762C59.5648 28.0762 58.9691 27.8359 58.4574 27.3555C57.9496 26.8711 57.6957 26.0723 57.6957 24.959C57.6957 23.9082 57.9516 23.0879 58.4633 22.498C58.9789 21.9082 59.6 21.6133 60.3266 21.6133ZM62.225 24.8359C62.225 24.0586 62.0648 23.4824 61.7445 23.1074C61.4242 22.7324 61.016 22.5449 60.5199 22.5449C59.7777 22.5449 59.2699 22.8926 58.9965 23.5879C58.852 23.959 58.7797 24.4453 58.7797 25.0469C58.7797 25.7539 58.9223 26.293 59.2074 26.6641C59.4965 27.0312 59.8832 27.2148 60.3676 27.2148C61.1254 27.2148 61.6586 26.873 61.9672 26.1895C62.1391 25.8027 62.225 25.3516 62.225 24.8359ZM73.9246 19.3926V20.418H71.0242V28H69.8406V20.418H66.9402V19.3926H73.9246ZM74.7969 19.3926H75.9336V23.5879L80.1289 19.3926H81.7402L78.1602 22.8613L81.8398 28H80.3223L77.3105 23.6816L75.9336 25V28H74.7969V19.3926ZM88.8645 19.3926V20.418H85.9641V28H84.7805V20.418H81.8801V19.3926H88.8645ZM96.0004 19.3926V20.418H93.1V28H91.9164V20.418H89.016V19.3926H96.0004Z" fill="black"/>
<circle cx="4" cy="56" r="4" fill="#38D6C2"/>
<path d="M23.1777 43.3926V44.418H20.2773V52H19.0938V44.418H16.1934V43.3926H23.1777ZM26.3996 51.3203C27.0988 51.3203 27.5773 51.0566 27.8352 50.5293C28.0969 49.998 28.2277 49.4082 28.2277 48.7598C28.2277 48.1738 28.134 47.6973 27.9465 47.3301C27.6496 46.752 27.1379 46.4629 26.4113 46.4629C25.7668 46.4629 25.298 46.709 25.0051 47.2012C24.7121 47.6934 24.5656 48.2871 24.5656 48.9824C24.5656 49.6504 24.7121 50.207 25.0051 50.6523C25.298 51.0977 25.7629 51.3203 26.3996 51.3203ZM26.4406 45.543C27.2492 45.543 27.9328 45.8125 28.4914 46.3516C29.05 46.8906 29.3293 47.6836 29.3293 48.7305C29.3293 49.7422 29.0832 50.5781 28.591 51.2383C28.0988 51.8984 27.3352 52.2285 26.3 52.2285C25.4367 52.2285 24.7512 51.9375 24.2434 51.3555C23.7355 50.7695 23.4816 49.9844 23.4816 49C23.4816 47.9453 23.7492 47.1055 24.2844 46.4805C24.8195 45.8555 25.5383 45.543 26.4406 45.543ZM27.0734 43.3281L28.2688 45.0215H27.3078L26.5168 43.8965L25.7258 45.0215H24.7707L25.9602 43.3281H27.0734ZM28.2043 42.4375C28.1457 42.3984 28.0852 42.3711 28.0227 42.3555C27.9641 42.3359 27.8898 42.3262 27.8 42.3262C27.7063 42.3262 27.5793 42.3379 27.4191 42.3613L27.3957 41.8984C27.4816 41.8867 27.5656 41.877 27.6477 41.8691C27.7336 41.8613 27.8156 41.8574 27.8938 41.8574C28.093 41.8574 28.2766 41.8906 28.4445 41.957C28.6125 42.0195 28.7609 42.1426 28.8898 42.3262C28.925 42.377 28.9543 42.4434 28.9777 42.5254C29.0051 42.6074 29.0188 42.6953 29.0188 42.7891C29.0188 42.8672 29.007 42.9473 28.9836 43.0293C28.9602 43.1113 28.9191 43.1895 28.8605 43.2637C28.802 43.334 28.7219 43.3965 28.6203 43.4512C28.5227 43.5059 28.3996 43.5488 28.2512 43.5801L28.2277 43.8379H27.7121V43.3926C27.9465 43.3691 28.1262 43.3008 28.2512 43.1875C28.3801 43.0703 28.4445 42.9453 28.4445 42.8125C28.4445 42.7422 28.425 42.6758 28.3859 42.6133C28.3469 42.5469 28.2863 42.4883 28.2043 42.4375ZM30.3891 45.7246H31.391V46.6152C31.6879 46.248 32.0023 45.9844 32.3344 45.8242C32.6664 45.6641 33.0355 45.584 33.4418 45.584C34.3324 45.584 34.934 45.8945 35.2465 46.5156C35.4184 46.8555 35.5043 47.3418 35.5043 47.9746V52H34.432V48.0449C34.432 47.6621 34.3754 47.3535 34.2621 47.1191C34.0746 46.7285 33.7348 46.5332 33.2426 46.5332C32.9926 46.5332 32.7875 46.5586 32.6273 46.6094C32.3383 46.6953 32.0844 46.8672 31.8656 47.125C31.6898 47.332 31.5746 47.5469 31.5199 47.7695C31.4691 47.9883 31.4438 48.3027 31.4438 48.7129V52H30.3891V45.7246ZM39.0836 45.6133C39.5758 45.6133 40.0055 45.7344 40.3727 45.9766C40.5719 46.1133 40.775 46.3125 40.982 46.5742V45.7832H41.9547V51.4902C41.9547 52.2871 41.8375 52.916 41.6031 53.377C41.1656 54.2285 40.3395 54.6543 39.1246 54.6543C38.4488 54.6543 37.8805 54.502 37.4195 54.1973C36.9586 53.8965 36.7008 53.4238 36.6461 52.7793H37.7184C37.7691 53.0605 37.8707 53.2773 38.023 53.4297C38.2613 53.6641 38.6363 53.7812 39.148 53.7812C39.9566 53.7812 40.4859 53.4961 40.7359 52.9258C40.8844 52.5898 40.9527 51.9902 40.941 51.127C40.7301 51.4473 40.4762 51.6855 40.1793 51.8418C39.8824 51.998 39.4898 52.0762 39.0016 52.0762C38.3219 52.0762 37.7262 51.8359 37.2145 51.3555C36.7066 50.8711 36.4527 50.0723 36.4527 48.959C36.4527 47.9082 36.7086 47.0879 37.2203 46.498C37.7359 45.9082 38.357 45.6133 39.0836 45.6133ZM40.982 48.8359C40.982 48.0586 40.8219 47.4824 40.5016 47.1074C40.1812 46.7324 39.773 46.5449 39.277 46.5449C38.5348 46.5449 38.027 46.8926 37.7535 47.5879C37.609 47.959 37.5367 48.4453 37.5367 49.0469C37.5367 49.7539 37.6793 50.293 37.9645 50.6641C38.2535 51.0312 38.6402 51.2148 39.1246 51.2148C39.8824 51.2148 40.4156 50.873 40.7242 50.1895C40.8961 49.8027 40.982 49.3516 40.982 48.8359ZM47.1152 50.0312C47.1465 50.3828 47.2344 50.6523 47.3789 50.8398C47.6445 51.1797 48.1055 51.3496 48.7617 51.3496C49.1523 51.3496 49.4961 51.2656 49.793 51.0977C50.0898 50.9258 50.2383 50.6621 50.2383 50.3066C50.2383 50.0371 50.1191 49.832 49.8809 49.6914C49.7285 49.6055 49.4277 49.5059 48.9785 49.3926L48.1406 49.1816C47.6055 49.0488 47.2109 48.9004 46.957 48.7363C46.5039 48.4512 46.2773 48.0566 46.2773 47.5527C46.2773 46.959 46.4902 46.4785 46.916 46.1113C47.3457 45.7441 47.9219 45.5605 48.6445 45.5605C49.5898 45.5605 50.2715 45.8379 50.6895 46.3926C50.9512 46.7441 51.0781 47.123 51.0703 47.5293H50.0742C50.0547 47.291 49.9707 47.0742 49.8223 46.8789C49.5801 46.6016 49.1602 46.4629 48.5625 46.4629C48.1641 46.4629 47.8613 46.5391 47.6543 46.6914C47.4512 46.8438 47.3496 47.0449 47.3496 47.2949C47.3496 47.5684 47.4844 47.7871 47.7539 47.9512C47.9102 48.0488 48.1406 48.1348 48.4453 48.209L49.1426 48.3789C49.9004 48.5625 50.4082 48.7402 50.666 48.9121C51.0762 49.1816 51.2812 49.6055 51.2812 50.1836C51.2812 50.7422 51.0684 51.2246 50.6426 51.6309C50.2207 52.0371 49.5762 52.2402 48.709 52.2402C47.7754 52.2402 47.1133 52.0293 46.7227 51.6074C46.3359 51.1816 46.1289 50.6562 46.1016 50.0312H47.1152ZM54.7785 51.3203C55.4777 51.3203 55.9562 51.0566 56.2141 50.5293C56.4758 49.998 56.6066 49.4082 56.6066 48.7598C56.6066 48.1738 56.5129 47.6973 56.3254 47.3301C56.0285 46.752 55.5168 46.4629 54.7902 46.4629C54.1457 46.4629 53.677 46.709 53.384 47.2012C53.091 47.6934 52.9445 48.2871 52.9445 48.9824C52.9445 49.6504 53.091 50.207 53.384 50.6523C53.677 51.0977 54.1418 51.3203 54.7785 51.3203ZM54.8195 45.543C55.6281 45.543 56.3117 45.8125 56.8703 46.3516C57.4289 46.8906 57.7082 47.6836 57.7082 48.7305C57.7082 49.7422 57.4621 50.5781 56.9699 51.2383C56.4777 51.8984 55.7141 52.2285 54.6789 52.2285C53.8156 52.2285 53.1301 51.9375 52.6223 51.3555C52.1145 50.7695 51.8605 49.9844 51.8605 49C51.8605 47.9453 52.1281 47.1055 52.6633 46.4805C53.1984 45.8555 53.9172 45.543 54.8195 45.543ZM55.4523 43.2988L56.6477 44.9922H55.6867L54.8957 43.8672L54.1047 44.9922H53.1496L54.3391 43.2988H55.4523ZM58.1711 42.168L56.6066 43.8613H55.798L56.8703 42.168H58.1711ZM62.5758 48.9355C62.5758 49.6074 62.7184 50.1699 63.0035 50.623C63.2887 51.0762 63.7457 51.3027 64.3746 51.3027C64.8629 51.3027 65.2633 51.0938 65.5758 50.6758C65.8922 50.2539 66.0504 49.6504 66.0504 48.8652C66.0504 48.0723 65.8883 47.4863 65.5641 47.1074C65.2398 46.7246 64.8395 46.5332 64.3629 46.5332C63.8316 46.5332 63.4 46.7363 63.068 47.1426C62.7398 47.5488 62.5758 48.1465 62.5758 48.9355ZM64.1637 45.6133C64.6441 45.6133 65.0465 45.7148 65.3707 45.918C65.5582 46.0352 65.7711 46.2402 66.0094 46.5332V43.3633H67.023V52H66.0738V51.127C65.8277 51.5137 65.5367 51.793 65.2008 51.9648C64.8648 52.1367 64.4801 52.2227 64.0465 52.2227C63.3473 52.2227 62.7418 51.9297 62.2301 51.3438C61.7184 50.7539 61.4625 49.9707 61.4625 48.9941C61.4625 48.0801 61.6949 47.2891 62.1598 46.6211C62.6285 45.9492 63.2965 45.6133 64.1637 45.6133ZM69.4422 45.7246V49.8906C69.4422 50.2109 69.493 50.4727 69.5945 50.6758C69.782 51.0508 70.1316 51.2383 70.6434 51.2383C71.3777 51.2383 71.8777 50.9102 72.1434 50.2539C72.2879 49.9023 72.3602 49.4199 72.3602 48.8066V45.7246H73.4148V46.6328C73.493 46.6367 73.5789 46.6289 73.6727 46.6094C73.8602 46.5977 74.0301 46.5605 74.1824 46.498L74.2469 46.4688C74.2664 46.457 74.2859 46.4414 74.3055 46.4219L74.0652 45.8359L75.243 45.3438L75.7234 46.5039L74.6277 46.9551C74.2098 47.1309 73.8055 47.2109 73.4148 47.1953V52H72.4188L72.4305 51.0742C72.2938 51.3125 72.1238 51.5137 71.9207 51.6777C71.5184 52.0059 71.0301 52.1699 70.4559 52.1699C69.5613 52.1699 68.952 51.8711 68.6277 51.2734C68.452 50.9531 68.3641 50.5254 68.3641 49.9902V45.7246H69.4422ZM16.9844 59.9727H18.0508V61.7246H19.0527V62.5859H18.0508V66.6816C18.0508 66.9004 18.125 67.0469 18.2734 67.1211C18.3555 67.1641 18.4922 67.1855 18.6836 67.1855C18.7344 67.1855 18.7891 67.1855 18.8477 67.1855C18.9062 67.1816 18.9746 67.1758 19.0527 67.168V68C18.9316 68.0352 18.8047 68.0605 18.6719 68.0762C18.543 68.0918 18.4023 68.0996 18.25 68.0996C17.7578 68.0996 17.4238 67.9746 17.248 67.7246C17.0723 67.4707 16.9844 67.1426 16.9844 66.7402V62.5859H16.1348V61.7246H16.9844V59.9727ZM19.9133 61.7539H20.9855V68H19.9133V61.7539ZM19.9133 59.3926H20.9855V60.5879H19.9133V59.3926ZM24.9984 61.584C25.4437 61.584 25.8754 61.6895 26.2934 61.9004C26.7113 62.1074 27.0297 62.377 27.2484 62.709C27.4594 63.0254 27.6 63.3945 27.6703 63.8164C27.7328 64.1055 27.7641 64.5664 27.7641 65.1992H23.1645C23.184 65.8359 23.3344 66.3477 23.6156 66.7344C23.8969 67.1172 24.3324 67.3086 24.9223 67.3086C25.473 67.3086 25.9125 67.127 26.2406 66.7637C26.4281 66.5527 26.5609 66.3086 26.6391 66.0312H27.6762C27.6488 66.2617 27.557 66.5195 27.4008 66.8047C27.2484 67.0859 27.0766 67.3164 26.8852 67.4961C26.5648 67.8086 26.1684 68.0195 25.6957 68.1289C25.4418 68.1914 25.1547 68.2227 24.8344 68.2227C24.0531 68.2227 23.391 67.9395 22.848 67.373C22.3051 66.8027 22.0336 66.0059 22.0336 64.9824C22.0336 63.9746 22.307 63.1562 22.8539 62.5273C23.4008 61.8984 24.1156 61.584 24.9984 61.584ZM26.6801 64.3613C26.6371 63.9043 26.5375 63.5391 26.3812 63.2656C26.0922 62.7578 25.6098 62.5039 24.934 62.5039C24.4496 62.5039 24.0434 62.6797 23.7152 63.0312C23.3871 63.3789 23.2133 63.8223 23.1937 64.3613H26.6801ZM25.5258 59.4512L26.7211 61.1445H25.7602L24.9691 60.0195L24.1781 61.1445H23.223L24.4125 59.4512H25.5258ZM23.891 59.9844H23.0883L21.518 58.291H22.8246L23.891 59.9844ZM28.8648 61.7246H29.8668V62.6152C30.1637 62.248 30.4781 61.9844 30.8102 61.8242C31.1422 61.6641 31.5113 61.584 31.9176 61.584C32.8082 61.584 33.4098 61.8945 33.7223 62.5156C33.8941 62.8555 33.9801 63.3418 33.9801 63.9746V68H32.9078V64.0449C32.9078 63.6621 32.8512 63.3535 32.7379 63.1191C32.5504 62.7285 32.2105 62.5332 31.7184 62.5332C31.4684 62.5332 31.2633 62.5586 31.1031 62.6094C30.8141 62.6953 30.5602 62.8672 30.3414 63.125C30.1656 63.332 30.0504 63.5469 29.9957 63.7695C29.9449 63.9883 29.9195 64.3027 29.9195 64.7129V68H28.8648V61.7246ZM40.6992 61.6133C41.1914 61.6133 41.6211 61.7344 41.9883 61.9766C42.1875 62.1133 42.3906 62.3125 42.5977 62.5742V61.7832H43.5703V67.4902C43.5703 68.2871 43.4531 68.916 43.2188 69.377C42.7812 70.2285 41.9551 70.6543 40.7402 70.6543C40.0645 70.6543 39.4961 70.502 39.0352 70.1973C38.5742 69.8965 38.3164 69.4238 38.2617 68.7793H39.334C39.3848 69.0605 39.4863 69.2773 39.6387 69.4297C39.877 69.6641 40.252 69.7812 40.7637 69.7812C41.5723 69.7812 42.1016 69.4961 42.3516 68.9258C42.5 68.5898 42.5684 67.9902 42.5566 67.127C42.3457 67.4473 42.0918 67.6855 41.7949 67.8418C41.498 67.998 41.1055 68.0762 40.6172 68.0762C39.9375 68.0762 39.3418 67.8359 38.8301 67.3555C38.3223 66.8711 38.0684 66.0723 38.0684 64.959C38.0684 63.9082 38.3242 63.0879 38.8359 62.498C39.3516 61.9082 39.9727 61.6133 40.6992 61.6133ZM42.5977 64.8359C42.5977 64.0586 42.4375 63.4824 42.1172 63.1074C41.7969 62.7324 41.3887 62.5449 40.8926 62.5449C40.1504 62.5449 39.6426 62.8926 39.3691 63.5879C39.2246 63.959 39.1523 64.4453 39.1523 65.0469C39.1523 65.7539 39.2949 66.293 39.5801 66.6641C39.8691 67.0312 40.2559 67.2148 40.7402 67.2148C41.498 67.2148 42.0312 66.873 42.3398 66.1895C42.5117 65.8027 42.5977 65.3516 42.5977 64.8359ZM46.0187 61.7246V65.8906C46.0187 66.2109 46.0695 66.4727 46.1711 66.6758C46.3586 67.0508 46.7082 67.2383 47.2199 67.2383C47.9543 67.2383 48.4543 66.9102 48.7199 66.2539C48.8645 65.9023 48.9367 65.4199 48.9367 64.8066V61.7246H49.9914V62.6328C50.0695 62.6367 50.1555 62.6289 50.2492 62.6094C50.4367 62.5977 50.6066 62.5605 50.759 62.498L50.8234 62.4688C50.843 62.457 50.8625 62.4414 50.882 62.4219L50.6418 61.8359L51.8195 61.3438L52.3 62.5039L51.2043 62.9551C50.7863 63.1309 50.382 63.2109 49.9914 63.1953V68H48.9953L49.007 67.0742C48.8703 67.3125 48.7004 67.5137 48.4973 67.6777C48.0949 68.0059 47.6066 68.1699 47.0324 68.1699C46.1379 68.1699 45.5285 67.8711 45.2043 67.2734C45.0285 66.9531 44.9406 66.5254 44.9406 65.9902V61.7246H46.0187ZM47.5832 59.9375C47.5246 59.8984 47.4641 59.8711 47.4016 59.8555C47.343 59.8359 47.2687 59.8262 47.1789 59.8262C47.0852 59.8262 46.9582 59.8379 46.798 59.8613L46.7746 59.3984C46.8605 59.3867 46.9445 59.377 47.0266 59.3691C47.1125 59.3613 47.1945 59.3574 47.2727 59.3574C47.4719 59.3574 47.6555 59.3906 47.8234 59.457C47.9914 59.5195 48.1398 59.6426 48.2687 59.8262C48.3039 59.877 48.3332 59.9434 48.3566 60.0254C48.384 60.1074 48.3977 60.1953 48.3977 60.2891C48.3977 60.3672 48.3859 60.4473 48.3625 60.5293C48.3391 60.6113 48.298 60.6895 48.2395 60.7637C48.1809 60.834 48.1008 60.8965 47.9992 60.9512C47.9016 61.0059 47.7785 61.0488 47.6301 61.0801L47.6066 61.3379H47.091V60.8926C47.3254 60.8691 47.5051 60.8008 47.6301 60.6875C47.759 60.5703 47.8234 60.4453 47.8234 60.3125C47.8234 60.2422 47.8039 60.1758 47.7648 60.1133C47.7258 60.0469 47.6652 59.9883 47.5832 59.9375ZM53.143 61.7539H54.2152V68H53.143V61.7539ZM53.143 59.3926H54.2152V60.5879H53.143V59.3926Z" fill="black"/>
<circle cx="4" cy="96" r="4" fill="#42C0F8"/>
<path d="M23.1777 83.3926V84.418H20.2773V92H19.0938V84.418H16.1934V83.3926H23.1777ZM26.3996 91.3203C27.0988 91.3203 27.5773 91.0566 27.8352 90.5293C28.0969 89.998 28.2277 89.4082 28.2277 88.7598C28.2277 88.1738 28.134 87.6973 27.9465 87.3301C27.6496 86.752 27.1379 86.4629 26.4113 86.4629C25.7668 86.4629 25.298 86.709 25.0051 87.2012C24.7121 87.6934 24.5656 88.2871 24.5656 88.9824C24.5656 89.6504 24.7121 90.207 25.0051 90.6523C25.298 91.0977 25.7629 91.3203 26.3996 91.3203ZM26.4406 85.543C27.2492 85.543 27.9328 85.8125 28.4914 86.3516C29.05 86.8906 29.3293 87.6836 29.3293 88.7305C29.3293 89.7422 29.0832 90.5781 28.591 91.2383C28.0988 91.8984 27.3352 92.2285 26.3 92.2285C25.4367 92.2285 24.7512 91.9375 24.2434 91.3555C23.7355 90.7695 23.4816 89.9844 23.4816 89C23.4816 87.9453 23.7492 87.1055 24.2844 86.4805C24.8195 85.8555 25.5383 85.543 26.4406 85.543ZM27.0734 83.3281L28.2688 85.0215H27.3078L26.5168 83.8965L25.7258 85.0215H24.7707L25.9602 83.3281H27.0734ZM28.2043 82.4375C28.1457 82.3984 28.0852 82.3711 28.0227 82.3555C27.9641 82.3359 27.8898 82.3262 27.8 82.3262C27.7063 82.3262 27.5793 82.3379 27.4191 82.3613L27.3957 81.8984C27.4816 81.8867 27.5656 81.877 27.6477 81.8691C27.7336 81.8613 27.8156 81.8574 27.8938 81.8574C28.093 81.8574 28.2766 81.8906 28.4445 81.957C28.6125 82.0195 28.7609 82.1426 28.8898 82.3262C28.925 82.377 28.9543 82.4434 28.9777 82.5254C29.0051 82.6074 29.0188 82.6953 29.0188 82.7891C29.0188 82.8672 29.007 82.9473 28.9836 83.0293C28.9602 83.1113 28.9191 83.1895 28.8605 83.2637C28.802 83.334 28.7219 83.3965 28.6203 83.4512C28.5227 83.5059 28.3996 83.5488 28.2512 83.5801L28.2277 83.8379H27.7121V83.3926C27.9465 83.3691 28.1262 83.3008 28.2512 83.1875C28.3801 83.0703 28.4445 82.9453 28.4445 82.8125C28.4445 82.7422 28.425 82.6758 28.3859 82.6133C28.3469 82.5469 28.2863 82.4883 28.2043 82.4375ZM30.3891 85.7246H31.391V86.6152C31.6879 86.248 32.0023 85.9844 32.3344 85.8242C32.6664 85.6641 33.0355 85.584 33.4418 85.584C34.3324 85.584 34.934 85.8945 35.2465 86.5156C35.4184 86.8555 35.5043 87.3418 35.5043 87.9746V92H34.432V88.0449C34.432 87.6621 34.3754 87.3535 34.2621 87.1191C34.0746 86.7285 33.7348 86.5332 33.2426 86.5332C32.9926 86.5332 32.7875 86.5586 32.6273 86.6094C32.3383 86.6953 32.0844 86.8672 31.8656 87.125C31.6898 87.332 31.5746 87.5469 31.5199 87.7695C31.4691 87.9883 31.4438 88.3027 31.4438 88.7129V92H30.3891V85.7246ZM39.0836 85.6133C39.5758 85.6133 40.0055 85.7344 40.3727 85.9766C40.5719 86.1133 40.775 86.3125 40.982 86.5742V85.7832H41.9547V91.4902C41.9547 92.2871 41.8375 92.916 41.6031 93.377C41.1656 94.2285 40.3395 94.6543 39.1246 94.6543C38.4488 94.6543 37.8805 94.502 37.4195 94.1973C36.9586 93.8965 36.7008 93.4238 36.6461 92.7793H37.7184C37.7691 93.0605 37.8707 93.2773 38.023 93.4297C38.2613 93.6641 38.6363 93.7812 39.148 93.7812C39.9566 93.7812 40.4859 93.4961 40.7359 92.9258C40.8844 92.5898 40.9527 91.9902 40.941 91.127C40.7301 91.4473 40.4762 91.6855 40.1793 91.8418C39.8824 91.998 39.4898 92.0762 39.0016 92.0762C38.3219 92.0762 37.7262 91.8359 37.2145 91.3555C36.7066 90.8711 36.4527 90.0723 36.4527 88.959C36.4527 87.9082 36.7086 87.0879 37.2203 86.498C37.7359 85.9082 38.357 85.6133 39.0836 85.6133ZM40.982 88.8359C40.982 88.0586 40.8219 87.4824 40.5016 87.1074C40.1812 86.7324 39.773 86.5449 39.277 86.5449C38.5348 86.5449 38.027 86.8926 37.7535 87.5879C37.609 87.959 37.5367 88.4453 37.5367 89.0469C37.5367 89.7539 37.6793 90.293 37.9645 90.6641C38.2535 91.0312 38.6402 91.2148 39.1246 91.2148C39.8824 91.2148 40.4156 90.873 40.7242 90.1895C40.8961 89.8027 40.982 89.3516 40.982 88.8359ZM48.7031 85.6133C49.1953 85.6133 49.625 85.7344 49.9922 85.9766C50.1914 86.1133 50.3945 86.3125 50.6016 86.5742V85.7832H51.5742V91.4902C51.5742 92.2871 51.457 92.916 51.2227 93.377C50.7852 94.2285 49.959 94.6543 48.7441 94.6543C48.0684 94.6543 47.5 94.502 47.0391 94.1973C46.5781 93.8965 46.3203 93.4238 46.2656 92.7793H47.3379C47.3887 93.0605 47.4902 93.2773 47.6426 93.4297C47.8809 93.6641 48.2559 93.7812 48.7676 93.7812C49.5762 93.7812 50.1055 93.4961 50.3555 92.9258C50.5039 92.5898 50.5723 91.9902 50.5605 91.127C50.3496 91.4473 50.0957 91.6855 49.7988 91.8418C49.502 91.998 49.1094 92.0762 48.6211 92.0762C47.9414 92.0762 47.3457 91.8359 46.834 91.3555C46.3262 90.8711 46.0723 90.0723 46.0723 88.959C46.0723 87.9082 46.3281 87.0879 46.8398 86.498C47.3555 85.9082 47.9766 85.6133 48.7031 85.6133ZM50.6016 88.8359C50.6016 88.0586 50.4414 87.4824 50.1211 87.1074C49.8008 86.7324 49.3926 86.5449 48.8965 86.5449C48.1543 86.5449 47.6465 86.8926 47.373 87.5879C47.2285 87.959 47.1562 88.4453 47.1562 89.0469C47.1562 89.7539 47.2988 90.293 47.584 90.6641C47.873 91.0312 48.2598 91.2148 48.7441 91.2148C49.502 91.2148 50.0352 90.873 50.3438 90.1895C50.5156 89.8027 50.6016 89.3516 50.6016 88.8359ZM52.968 85.7539H54.0402V92H52.968V85.7539ZM52.968 83.3926H54.0402V84.5879H52.968V83.3926ZM56.2484 90.3301C56.2484 90.6348 56.3598 90.875 56.5824 91.0508C56.8051 91.2266 57.0687 91.3145 57.3734 91.3145C57.7445 91.3145 58.1039 91.2285 58.4516 91.0566C59.0375 90.7715 59.3305 90.3047 59.3305 89.6562V88.8066C59.2016 88.8887 59.0355 88.957 58.8324 89.0117C58.6293 89.0664 58.4301 89.1055 58.2348 89.1289L57.5961 89.2109C57.2133 89.2617 56.9262 89.3418 56.7348 89.4512C56.4105 89.6348 56.2484 89.9277 56.2484 90.3301ZM58.8031 88.1973C59.0453 88.166 59.2074 88.0645 59.2895 87.8926C59.3363 87.7988 59.3598 87.6641 59.3598 87.4883C59.3598 87.1289 59.2309 86.8691 58.973 86.709C58.7191 86.5449 58.3539 86.4629 57.8773 86.4629C57.3266 86.4629 56.9359 86.6113 56.7055 86.9082C56.5766 87.0723 56.4926 87.3164 56.4535 87.6406H55.4691C55.4887 86.8672 55.7387 86.3301 56.2191 86.0293C56.7035 85.7246 57.2641 85.5723 57.9008 85.5723C58.6391 85.5723 59.2387 85.7129 59.6996 85.9941C60.1566 86.2754 60.3852 86.7129 60.3852 87.3066V90.9219C60.3852 91.0312 60.4066 91.1191 60.4496 91.1855C60.4965 91.252 60.5922 91.2852 60.7367 91.2852C60.7836 91.2852 60.8363 91.2832 60.8949 91.2793C60.9535 91.2715 61.016 91.2617 61.0824 91.25V92.0293C60.9184 92.0762 60.7934 92.1055 60.7074 92.1172C60.6215 92.1289 60.5043 92.1348 60.3559 92.1348C59.9926 92.1348 59.7289 92.0059 59.5648 91.748C59.4789 91.6113 59.4184 91.418 59.3832 91.168C59.1684 91.4492 58.8598 91.6934 58.4574 91.9004C58.0551 92.1074 57.6117 92.2109 57.1273 92.2109C56.5453 92.2109 56.0687 92.0352 55.6977 91.6836C55.3305 91.3281 55.1469 90.8848 55.1469 90.3535C55.1469 89.7715 55.3285 89.3203 55.6918 89C56.0551 88.6797 56.5316 88.4824 57.1215 88.4082L58.8031 88.1973ZM59.2484 83.1992L57.684 84.8926H56.8754L57.9477 83.1992H59.2484ZM65.2703 83.9727H66.3367V85.7246H67.3387V86.5859H66.3367V90.6816C66.3367 90.9004 66.4109 91.0469 66.5594 91.1211C66.6414 91.1641 66.7781 91.1855 66.9695 91.1855C67.0203 91.1855 67.075 91.1855 67.1336 91.1855C67.1922 91.1816 67.2605 91.1758 67.3387 91.168V92C67.2176 92.0352 67.0906 92.0605 66.9578 92.0762C66.8289 92.0918 66.6883 92.0996 66.5359 92.0996C66.0438 92.0996 65.7098 91.9746 65.534 91.7246C65.3582 91.4707 65.2703 91.1426 65.2703 90.7402V86.5859H64.4207V85.7246H65.2703V83.9727ZM68.2285 85.7246H69.2305V86.8086C69.3125 86.5977 69.5137 86.3418 69.834 86.041C70.1543 85.7363 70.5234 85.584 70.9414 85.584C70.9609 85.584 70.9941 85.5859 71.041 85.5898C71.0879 85.5938 71.168 85.6016 71.2812 85.6133V86.7266C71.2188 86.7148 71.1602 86.707 71.1055 86.7031C71.0547 86.6992 70.998 86.6973 70.9355 86.6973C70.4043 86.6973 69.9961 86.8691 69.7109 87.2129C69.4258 87.5527 69.2832 87.9453 69.2832 88.3906V92H68.2285V85.7246ZM71.9953 85.7539H73.0676V92H71.9953V85.7539ZM71.9953 83.3926H73.0676V84.5879H71.9953V83.3926ZM72.0187 92.5332H73.1145V93.752H72.0187V92.5332ZM79.8219 85.6133C80.3141 85.6133 80.7438 85.7344 81.1109 85.9766C81.3102 86.1133 81.5133 86.3125 81.7203 86.5742V85.7832H82.693V91.4902C82.693 92.2871 82.5758 92.916 82.3414 93.377C81.9039 94.2285 81.0777 94.6543 79.8629 94.6543C79.1871 94.6543 78.6188 94.502 78.1578 94.1973C77.6969 93.8965 77.4391 93.4238 77.3844 92.7793H78.4566C78.5074 93.0605 78.609 93.2773 78.7613 93.4297C78.9996 93.6641 79.3746 93.7812 79.8863 93.7812C80.6949 93.7812 81.2242 93.4961 81.4742 92.9258C81.6227 92.5898 81.691 91.9902 81.6793 91.127C81.4684 91.4473 81.2145 91.6855 80.9176 91.8418C80.6207 91.998 80.2281 92.0762 79.7398 92.0762C79.0602 92.0762 78.4645 91.8359 77.9527 91.3555C77.4449 90.8711 77.191 90.0723 77.191 88.959C77.191 87.9082 77.4469 87.0879 77.9586 86.498C78.4742 85.9082 79.0953 85.6133 79.8219 85.6133ZM81.7203 88.8359C81.7203 88.0586 81.5602 87.4824 81.2398 87.1074C80.9195 86.7324 80.5113 86.5449 80.0152 86.5449C79.273 86.5449 78.7652 86.8926 78.4918 87.5879C78.3473 87.959 78.275 88.4453 78.275 89.0469C78.275 89.7539 78.4176 90.293 78.7027 90.6641C78.9918 91.0312 79.3785 91.2148 79.8629 91.2148C80.6207 91.2148 81.1539 90.873 81.4625 90.1895C81.6344 89.8027 81.7203 89.3516 81.7203 88.8359ZM84.0867 85.7539H85.159V92H84.0867V85.7539ZM84.0867 83.3926H85.159V84.5879H84.0867V83.3926ZM87.3672 90.3301C87.3672 90.6348 87.4785 90.875 87.7012 91.0508C87.9238 91.2266 88.1875 91.3145 88.4922 91.3145C88.8633 91.3145 89.2227 91.2285 89.5703 91.0566C90.1562 90.7715 90.4492 90.3047 90.4492 89.6562V88.8066C90.3203 88.8887 90.1543 88.957 89.9512 89.0117C89.748 89.0664 89.5488 89.1055 89.3535 89.1289L88.7148 89.2109C88.332 89.2617 88.0449 89.3418 87.8535 89.4512C87.5293 89.6348 87.3672 89.9277 87.3672 90.3301ZM89.9219 88.1973C90.1641 88.166 90.3262 88.0645 90.4082 87.8926C90.4551 87.7988 90.4785 87.6641 90.4785 87.4883C90.4785 87.1289 90.3496 86.8691 90.0918 86.709C89.8379 86.5449 89.4727 86.4629 88.9961 86.4629C88.4453 86.4629 88.0547 86.6113 87.8242 86.9082C87.6953 87.0723 87.6113 87.3164 87.5723 87.6406H86.5879C86.6074 86.8672 86.8574 86.3301 87.3379 86.0293C87.8223 85.7246 88.3828 85.5723 89.0195 85.5723C89.7578 85.5723 90.3574 85.7129 90.8184 85.9941C91.2754 86.2754 91.5039 86.7129 91.5039 87.3066V90.9219C91.5039 91.0312 91.5254 91.1191 91.5684 91.1855C91.6152 91.252 91.7109 91.2852 91.8555 91.2852C91.9023 91.2852 91.9551 91.2832 92.0137 91.2793C92.0723 91.2715 92.1348 91.2617 92.2012 91.25V92.0293C92.0371 92.0762 91.9121 92.1055 91.8262 92.1172C91.7402 92.1289 91.623 92.1348 91.4746 92.1348C91.1113 92.1348 90.8477 92.0059 90.6836 91.748C90.5977 91.6113 90.5371 91.418 90.502 91.168C90.2871 91.4492 89.9785 91.6934 89.5762 91.9004C89.1738 92.1074 88.7305 92.2109 88.2461 92.2109C87.6641 92.2109 87.1875 92.0352 86.8164 91.6836C86.4492 91.3281 86.2656 90.8848 86.2656 90.3535C86.2656 89.7715 86.4473 89.3203 86.8105 89C87.1738 88.6797 87.6504 88.4824 88.2402 88.4082L89.9219 88.1973ZM95.5285 91.3203C96.2277 91.3203 96.7063 91.0566 96.9641 90.5293C97.2258 89.998 97.3566 89.4082 97.3566 88.7598C97.3566 88.1738 97.2629 87.6973 97.0754 87.3301C96.7785 86.752 96.2668 86.4629 95.5402 86.4629C94.8957 86.4629 94.427 86.709 94.134 87.2012C93.841 87.6934 93.6945 88.2871 93.6945 88.9824C93.6945 89.6504 93.841 90.207 94.134 90.6523C94.427 91.0977 94.8918 91.3203 95.5285 91.3203ZM95.5695 85.543C96.3781 85.543 97.0617 85.8125 97.6203 86.3516C98.1789 86.8906 98.4582 87.6836 98.4582 88.7305C98.4582 89.7422 98.2121 90.5781 97.7199 91.2383C97.2277 91.8984 96.4641 92.2285 95.4289 92.2285C94.5656 92.2285 93.8801 91.9375 93.3723 91.3555C92.8645 90.7695 92.6105 89.9844 92.6105 89C92.6105 87.9453 92.8781 87.1055 93.4133 86.4805C93.9484 85.8555 94.6672 85.543 95.5695 85.543ZM103.326 88.9355C103.326 89.6074 103.468 90.1699 103.754 90.623C104.039 91.0762 104.496 91.3027 105.125 91.3027C105.613 91.3027 106.013 91.0938 106.326 90.6758C106.642 90.2539 106.8 89.6504 106.8 88.8652C106.8 88.0723 106.638 87.4863 106.314 87.1074C105.99 86.7246 105.589 86.5332 105.113 86.5332C104.582 86.5332 104.15 86.7363 103.818 87.1426C103.49 87.5488 103.326 88.1465 103.326 88.9355ZM104.914 85.6133C105.394 85.6133 105.796 85.7148 106.121 85.918C106.308 86.0352 106.521 86.2402 106.759 86.5332V83.3633H107.773V92H106.824V91.127C106.578 91.5137 106.287 91.793 105.951 91.9648C105.615 92.1367 105.23 92.2227 104.796 92.2227C104.097 92.2227 103.492 91.9297 102.98 91.3438C102.468 90.7539 102.213 89.9707 102.213 88.9941C102.213 88.0801 102.445 87.2891 102.91 86.6211C103.379 85.9492 104.046 85.6133 104.914 85.6133ZM109.137 85.7539H110.21V92H109.137V85.7539ZM109.137 83.3926H110.21V84.5879H109.137V83.3926ZM109.161 92.5332H110.257V93.752H109.161V92.5332ZM114.029 85.543C114.736 85.543 115.311 85.7148 115.752 86.0586C116.197 86.4023 116.465 86.9941 116.555 87.834H115.529C115.467 87.4473 115.324 87.127 115.102 86.873C114.879 86.6152 114.521 86.4863 114.029 86.4863C113.357 86.4863 112.877 86.8145 112.588 87.4707C112.4 87.8965 112.307 88.4219 112.307 89.0469C112.307 89.6758 112.439 90.2051 112.705 90.6348C112.971 91.0645 113.389 91.2793 113.959 91.2793C114.396 91.2793 114.742 91.1465 114.996 90.8809C115.254 90.6113 115.432 90.2441 115.529 89.7793H116.555C116.438 90.6113 116.145 91.2207 115.676 91.6074C115.207 91.9902 114.607 92.1816 113.877 92.1816C113.057 92.1816 112.402 91.8828 111.914 91.2852C111.426 90.6836 111.182 89.9336 111.182 89.0352C111.182 87.9336 111.449 87.0762 111.984 86.4629C112.52 85.8496 113.201 85.543 114.029 85.543ZM117.409 83.3633H118.464V86.5742C118.714 86.2578 118.939 86.0352 119.138 85.9062C119.478 85.6836 119.902 85.5723 120.409 85.5723C121.32 85.5723 121.937 85.8906 122.261 86.5273C122.437 86.875 122.525 87.3574 122.525 87.9746V92H121.441V88.0449C121.441 87.584 121.382 87.2461 121.265 87.0312C121.073 86.6875 120.714 86.5156 120.187 86.5156C119.749 86.5156 119.353 86.666 118.997 86.9668C118.642 87.2676 118.464 87.8359 118.464 88.6719V92H117.409V83.3633ZM16.9844 99.9727H18.0508V101.725H19.0527V102.586H18.0508V106.682C18.0508 106.9 18.125 107.047 18.2734 107.121C18.3555 107.164 18.4922 107.186 18.6836 107.186C18.7344 107.186 18.7891 107.186 18.8477 107.186C18.9062 107.182 18.9746 107.176 19.0527 107.168V108C18.9316 108.035 18.8047 108.061 18.6719 108.076C18.543 108.092 18.4023 108.1 18.25 108.1C17.7578 108.1 17.4238 107.975 17.248 107.725C17.0723 107.471 16.9844 107.143 16.9844 106.74V102.586H16.1348V101.725H16.9844V99.9727ZM19.9426 101.725H20.9445V102.809C21.0266 102.598 21.2277 102.342 21.548 102.041C21.8684 101.736 22.2375 101.584 22.6555 101.584C22.675 101.584 22.7082 101.586 22.7551 101.59C22.802 101.594 22.882 101.602 22.9953 101.613V102.727C22.9328 102.715 22.8742 102.707 22.8195 102.703C22.7687 102.699 22.7121 102.697 22.6496 102.697C22.1184 102.697 21.7102 102.869 21.425 103.213C21.1398 103.553 20.9973 103.945 20.9973 104.391V108H19.9426V101.725ZM24.7641 101.725V105.891C24.7641 106.211 24.8148 106.473 24.9164 106.676C25.1039 107.051 25.4535 107.238 25.9652 107.238C26.6996 107.238 27.1996 106.91 27.4652 106.254C27.6098 105.902 27.682 105.42 27.682 104.807V101.725H28.7367V102.633C28.8148 102.637 28.9008 102.629 28.9945 102.609C29.182 102.598 29.352 102.561 29.5043 102.498L29.5687 102.469C29.5883 102.457 29.6078 102.441 29.6273 102.422L29.3871 101.836L30.5648 101.344L31.0453 102.504L29.9496 102.955C29.5316 103.131 29.1273 103.211 28.7367 103.195V108H27.7406L27.7523 107.074C27.6156 107.312 27.4457 107.514 27.2426 107.678C26.8402 108.006 26.352 108.17 25.7777 108.17C24.8832 108.17 24.2738 107.871 23.9496 107.273C23.7738 106.953 23.6859 106.525 23.6859 105.99V101.725H24.7641ZM25.7719 108.674H26.8676V109.893H25.7719V108.674ZM34.3082 101.543C35.0152 101.543 35.5895 101.715 36.0309 102.059C36.4762 102.402 36.7437 102.994 36.8336 103.834H35.8082C35.7457 103.447 35.6031 103.127 35.3805 102.873C35.1578 102.615 34.8004 102.486 34.3082 102.486C33.6363 102.486 33.1559 102.814 32.8668 103.471C32.6793 103.896 32.5855 104.422 32.5855 105.047C32.5855 105.676 32.7184 106.205 32.984 106.635C33.2496 107.064 33.6676 107.279 34.2379 107.279C34.6754 107.279 35.0211 107.146 35.275 106.881C35.5328 106.611 35.7105 106.244 35.8082 105.779H36.8336C36.7164 106.611 36.4234 107.221 35.9547 107.607C35.4859 107.99 34.8863 108.182 34.1559 108.182C33.3355 108.182 32.6812 107.883 32.193 107.285C31.7047 106.684 31.4605 105.934 31.4605 105.035C31.4605 103.934 31.7281 103.076 32.2633 102.463C32.7984 101.85 33.4801 101.543 34.3082 101.543ZM41.0391 99.9727H42.1055V101.725H43.1074V102.586H42.1055V106.682C42.1055 106.9 42.1797 107.047 42.3281 107.121C42.4102 107.164 42.5469 107.186 42.7383 107.186C42.7891 107.186 42.8438 107.186 42.9023 107.186C42.9609 107.182 43.0293 107.176 43.1074 107.168V108C42.9863 108.035 42.8594 108.061 42.7266 108.076C42.5977 108.092 42.457 108.1 42.3047 108.1C41.8125 108.1 41.4785 107.975 41.3027 107.725C41.127 107.471 41.0391 107.143 41.0391 106.74V102.586H40.1895V101.725H41.0391V99.9727ZM45.0227 101.725V105.891C45.0227 106.211 45.0734 106.473 45.175 106.676C45.3625 107.051 45.7121 107.238 46.2238 107.238C46.9582 107.238 47.4582 106.91 47.7238 106.254C47.8684 105.902 47.9406 105.42 47.9406 104.807V101.725H48.9953V108H47.9992L48.0109 107.074C47.8742 107.312 47.7043 107.514 47.5012 107.678C47.0988 108.006 46.6105 108.17 46.0363 108.17C45.1418 108.17 44.5324 107.871 44.2082 107.273C44.0324 106.953 43.9445 106.525 43.9445 105.99V101.725H45.0227ZM54.3676 101.725H55.5336C55.3852 102.127 55.0551 103.045 54.5434 104.479C54.1605 105.557 53.8402 106.436 53.5824 107.115C52.973 108.717 52.5434 109.693 52.2934 110.045C52.0434 110.396 51.6137 110.572 51.0043 110.572C50.8559 110.572 50.7406 110.566 50.6586 110.555C50.5805 110.543 50.4828 110.521 50.3656 110.49V109.529C50.5492 109.58 50.682 109.611 50.7641 109.623C50.8461 109.635 50.9184 109.641 50.9809 109.641C51.1762 109.641 51.3187 109.607 51.4086 109.541C51.5023 109.479 51.5805 109.4 51.643 109.307C51.6625 109.275 51.7328 109.115 51.8539 108.826C51.975 108.537 52.0629 108.322 52.1176 108.182L49.7973 101.725H50.9926L52.6742 106.834L54.3676 101.725ZM58.8609 101.584C59.3063 101.584 59.7379 101.689 60.1559 101.9C60.5738 102.107 60.8922 102.377 61.1109 102.709C61.3219 103.025 61.4625 103.395 61.5328 103.816C61.5953 104.105 61.6266 104.566 61.6266 105.199H57.027C57.0465 105.836 57.1969 106.348 57.4781 106.734C57.7594 107.117 58.1949 107.309 58.7848 107.309C59.3355 107.309 59.775 107.127 60.1031 106.764C60.2906 106.553 60.4234 106.309 60.5016 106.031H61.5387C61.5113 106.262 61.4195 106.52 61.2633 106.805C61.1109 107.086 60.9391 107.316 60.7477 107.496C60.4273 107.809 60.0309 108.02 59.5582 108.129C59.3043 108.191 59.0172 108.223 58.6969 108.223C57.9156 108.223 57.2535 107.939 56.7105 107.373C56.1676 106.803 55.8961 106.006 55.8961 104.982C55.8961 103.975 56.1695 103.156 56.7164 102.527C57.2633 101.898 57.9781 101.584 58.8609 101.584ZM60.5426 104.361C60.4996 103.904 60.4 103.539 60.2438 103.266C59.9547 102.758 59.4723 102.504 58.7965 102.504C58.3121 102.504 57.9059 102.68 57.5777 103.031C57.2496 103.379 57.0758 103.822 57.0563 104.361H60.5426ZM59.2008 99.2988L60.3961 100.992H59.4352L58.6441 99.8672L57.8531 100.992H56.898L58.0875 99.2988H59.2008ZM61.9195 98.168L60.3551 99.8613H59.5465L60.6188 98.168H61.9195ZM62.7273 101.725H63.7293V102.615C64.0262 102.248 64.3406 101.984 64.6727 101.824C65.0047 101.664 65.3738 101.584 65.7801 101.584C66.6707 101.584 67.2723 101.895 67.5848 102.516C67.7566 102.855 67.8426 103.342 67.8426 103.975V108H66.7703V104.045C66.7703 103.662 66.7137 103.354 66.6004 103.119C66.4129 102.729 66.073 102.533 65.5809 102.533C65.3309 102.533 65.1258 102.559 64.9656 102.609C64.6766 102.695 64.4227 102.867 64.2039 103.125C64.0281 103.332 63.9129 103.547 63.8582 103.77C63.8074 103.988 63.782 104.303 63.782 104.713V108H62.7273V101.725Z" fill="black"/>
<circle cx="4" cy="136" r="4" fill="#FDBE7B"/>
<path d="M23.1777 123.393V124.418H20.2773V132H19.0938V124.418H16.1934V123.393H23.1777ZM26.3996 131.32C27.0988 131.32 27.5773 131.057 27.8352 130.529C28.0969 129.998 28.2277 129.408 28.2277 128.76C28.2277 128.174 28.134 127.697 27.9465 127.33C27.6496 126.752 27.1379 126.463 26.4113 126.463C25.7668 126.463 25.298 126.709 25.0051 127.201C24.7121 127.693 24.5656 128.287 24.5656 128.982C24.5656 129.65 24.7121 130.207 25.0051 130.652C25.298 131.098 25.7629 131.32 26.3996 131.32ZM26.4406 125.543C27.2492 125.543 27.9328 125.812 28.4914 126.352C29.05 126.891 29.3293 127.684 29.3293 128.73C29.3293 129.742 29.0832 130.578 28.591 131.238C28.0988 131.898 27.3352 132.229 26.3 132.229C25.4367 132.229 24.7512 131.938 24.2434 131.355C23.7355 130.77 23.4816 129.984 23.4816 129C23.4816 127.945 23.7492 127.105 24.2844 126.48C24.8195 125.855 25.5383 125.543 26.4406 125.543ZM27.0734 123.328L28.2688 125.021H27.3078L26.5168 123.896L25.7258 125.021H24.7707L25.9602 123.328H27.0734ZM28.2043 122.438C28.1457 122.398 28.0852 122.371 28.0227 122.355C27.9641 122.336 27.8898 122.326 27.8 122.326C27.7063 122.326 27.5793 122.338 27.4191 122.361L27.3957 121.898C27.4816 121.887 27.5656 121.877 27.6477 121.869C27.7336 121.861 27.8156 121.857 27.8938 121.857C28.093 121.857 28.2766 121.891 28.4445 121.957C28.6125 122.02 28.7609 122.143 28.8898 122.326C28.925 122.377 28.9543 122.443 28.9777 122.525C29.0051 122.607 29.0188 122.695 29.0188 122.789C29.0188 122.867 29.007 122.947 28.9836 123.029C28.9602 123.111 28.9191 123.189 28.8605 123.264C28.802 123.334 28.7219 123.396 28.6203 123.451C28.5227 123.506 28.3996 123.549 28.2512 123.58L28.2277 123.838H27.7121V123.393C27.9465 123.369 28.1262 123.301 28.2512 123.188C28.3801 123.07 28.4445 122.945 28.4445 122.812C28.4445 122.742 28.425 122.676 28.3859 122.613C28.3469 122.547 28.2863 122.488 28.2043 122.438ZM30.3891 125.725H31.391V126.615C31.6879 126.248 32.0023 125.984 32.3344 125.824C32.6664 125.664 33.0355 125.584 33.4418 125.584C34.3324 125.584 34.934 125.895 35.2465 126.516C35.4184 126.855 35.5043 127.342 35.5043 127.975V132H34.432V128.045C34.432 127.662 34.3754 127.354 34.2621 127.119C34.0746 126.729 33.7348 126.533 33.2426 126.533C32.9926 126.533 32.7875 126.559 32.6273 126.609C32.3383 126.695 32.0844 126.867 31.8656 127.125C31.6898 127.332 31.5746 127.547 31.5199 127.77C31.4691 127.988 31.4438 128.303 31.4438 128.713V132H30.3891V125.725ZM39.0836 125.613C39.5758 125.613 40.0055 125.734 40.3727 125.977C40.5719 126.113 40.775 126.312 40.982 126.574V125.783H41.9547V131.49C41.9547 132.287 41.8375 132.916 41.6031 133.377C41.1656 134.229 40.3395 134.654 39.1246 134.654C38.4488 134.654 37.8805 134.502 37.4195 134.197C36.9586 133.896 36.7008 133.424 36.6461 132.779H37.7184C37.7691 133.061 37.8707 133.277 38.023 133.43C38.2613 133.664 38.6363 133.781 39.148 133.781C39.9566 133.781 40.4859 133.496 40.7359 132.926C40.8844 132.59 40.9527 131.99 40.941 131.127C40.7301 131.447 40.4762 131.686 40.1793 131.842C39.8824 131.998 39.4898 132.076 39.0016 132.076C38.3219 132.076 37.7262 131.836 37.2145 131.355C36.7066 130.871 36.4527 130.072 36.4527 128.959C36.4527 127.908 36.7086 127.088 37.2203 126.498C37.7359 125.908 38.357 125.613 39.0836 125.613ZM40.982 128.836C40.982 128.059 40.8219 127.482 40.5016 127.107C40.1812 126.732 39.773 126.545 39.277 126.545C38.5348 126.545 38.027 126.893 37.7535 127.588C37.609 127.959 37.5367 128.445 37.5367 129.047C37.5367 129.754 37.6793 130.293 37.9645 130.664C38.2535 131.031 38.6402 131.215 39.1246 131.215C39.8824 131.215 40.4156 130.873 40.7242 130.189C40.8961 129.803 40.982 129.352 40.982 128.836ZM47.1562 128.936C47.1562 129.607 47.2988 130.17 47.584 130.623C47.8691 131.076 48.3262 131.303 48.9551 131.303C49.4434 131.303 49.8438 131.094 50.1562 130.676C50.4727 130.254 50.6309 129.65 50.6309 128.865C50.6309 128.072 50.4688 127.486 50.1445 127.107C49.8203 126.725 49.4199 126.533 48.9434 126.533C48.4121 126.533 47.9805 126.736 47.6484 127.143C47.3203 127.549 47.1562 128.146 47.1562 128.936ZM48.7441 125.613C49.2246 125.613 49.627 125.715 49.9512 125.918C50.1387 126.035 50.3516 126.24 50.5898 126.533V123.363H51.6035V132H50.6543V131.127C50.4082 131.514 50.1172 131.793 49.7812 131.965C49.4453 132.137 49.0605 132.223 48.627 132.223C47.9277 132.223 47.3223 131.93 46.8105 131.344C46.2988 130.754 46.043 129.971 46.043 128.994C46.043 128.08 46.2754 127.289 46.7402 126.621C47.209 125.949 47.877 125.613 48.7441 125.613ZM54.0227 125.725V129.891C54.0227 130.211 54.0734 130.473 54.175 130.676C54.3625 131.051 54.7121 131.238 55.2238 131.238C55.9582 131.238 56.4582 130.91 56.7238 130.254C56.8684 129.902 56.9406 129.42 56.9406 128.807V125.725H57.9953V126.633C58.0734 126.637 58.1594 126.629 58.2531 126.609C58.4406 126.598 58.6105 126.561 58.7629 126.498L58.8273 126.469C58.8469 126.457 58.8664 126.441 58.8859 126.422L58.6457 125.836L59.8234 125.344L60.3039 126.504L59.2082 126.955C58.7902 127.131 58.3859 127.211 57.9953 127.195V132H56.9992L57.0109 131.074C56.8742 131.312 56.7043 131.514 56.5012 131.678C56.0988 132.006 55.6105 132.17 55.0363 132.17C54.1418 132.17 53.5324 131.871 53.2082 131.273C53.0324 130.953 52.9445 130.525 52.9445 129.99V125.725H54.0227ZM64.2867 125.725H65.2887V126.615C65.5855 126.248 65.9 125.984 66.232 125.824C66.5641 125.664 66.9332 125.584 67.3395 125.584C68.2301 125.584 68.8316 125.895 69.1441 126.516C69.316 126.855 69.402 127.342 69.402 127.975V132H68.3297V128.045C68.3297 127.662 68.273 127.354 68.1598 127.119C67.9723 126.729 67.6324 126.533 67.1402 126.533C66.8902 126.533 66.6852 126.559 66.525 126.609C66.2359 126.695 65.982 126.867 65.7633 127.125C65.5875 127.332 65.4723 127.547 65.4176 127.77C65.3668 127.988 65.3414 128.303 65.3414 128.713V132H64.2867V125.725ZM76.1863 128.73C76.1863 129.742 75.9402 130.578 75.448 131.238C74.9559 131.898 74.1922 132.229 73.157 132.229C72.2938 132.229 71.6082 131.938 71.1004 131.355C70.5926 130.77 70.3387 129.984 70.3387 129C70.3387 127.945 70.6063 127.105 71.1414 126.48C71.6766 125.855 72.3953 125.543 73.2977 125.543C74.1063 125.543 74.7898 125.812 75.3484 126.352C75.4383 126.438 75.5203 126.531 75.5945 126.633C75.6531 126.633 75.7176 126.625 75.7879 126.609C75.9754 126.598 76.1453 126.561 76.2977 126.498L76.3621 126.469C76.3816 126.457 76.4012 126.441 76.4207 126.422L76.1805 125.836L77.3582 125.344L77.8387 126.504L76.743 126.955C76.4578 127.076 76.1805 127.152 75.9109 127.184C76.0945 127.617 76.1863 128.133 76.1863 128.73ZM75.0848 128.76C75.0848 128.174 74.991 127.697 74.8035 127.33C74.5066 126.752 73.9949 126.463 73.2684 126.463C72.6238 126.463 72.1551 126.709 71.8621 127.201C71.5691 127.693 71.4227 128.287 71.4227 128.982C71.4227 129.65 71.5691 130.207 71.8621 130.652C72.1551 131.098 72.6199 131.32 73.2566 131.32C73.9559 131.32 74.4344 131.057 74.6922 130.529C74.9539 129.998 75.0848 129.408 75.0848 128.76ZM72.659 132.762H73.7547V133.98H72.659V132.762ZM19.1934 141.543C19.9004 141.543 20.4746 141.715 20.916 142.059C21.3613 142.402 21.6289 142.994 21.7188 143.834H20.6934C20.6309 143.447 20.4883 143.127 20.2656 142.873C20.043 142.615 19.6855 142.486 19.1934 142.486C18.5215 142.486 18.041 142.814 17.752 143.471C17.5645 143.896 17.4707 144.422 17.4707 145.047C17.4707 145.676 17.6035 146.205 17.8691 146.635C18.1348 147.064 18.5527 147.279 19.123 147.279C19.5605 147.279 19.9062 147.146 20.1602 146.881C20.418 146.611 20.5957 146.244 20.6934 145.779H21.7188C21.6016 146.611 21.3086 147.221 20.8398 147.607C20.3711 147.99 19.7715 148.182 19.041 148.182C18.2207 148.182 17.5664 147.883 17.0781 147.285C16.5898 146.684 16.3457 145.934 16.3457 145.035C16.3457 143.934 16.6133 143.076 17.1484 142.463C17.6836 141.85 18.3652 141.543 19.1934 141.543ZM25.0637 147.32C25.7629 147.32 26.2414 147.057 26.4992 146.529C26.7609 145.998 26.8918 145.408 26.8918 144.76C26.8918 144.174 26.798 143.697 26.6105 143.33C26.3137 142.752 25.802 142.463 25.0754 142.463C24.4309 142.463 23.9621 142.709 23.6691 143.201C23.3762 143.693 23.2297 144.287 23.2297 144.982C23.2297 145.65 23.3762 146.207 23.6691 146.652C23.9621 147.098 24.427 147.32 25.0637 147.32ZM25.1047 141.543C25.9133 141.543 26.5969 141.812 27.1555 142.352C27.7141 142.891 27.9934 143.684 27.9934 144.73C27.9934 145.742 27.7473 146.578 27.2551 147.238C26.7629 147.898 25.9992 148.229 24.9641 148.229C24.1008 148.229 23.4152 147.938 22.9074 147.355C22.3996 146.77 22.1457 145.984 22.1457 145C22.1457 143.945 22.4133 143.105 22.9484 142.48C23.4836 141.855 24.2023 141.543 25.1047 141.543ZM25.7727 140.893H24.9699L23.3996 139.199H24.7063L25.7727 140.893ZM29.0531 141.725H30.0551V142.615C30.352 142.248 30.6664 141.984 30.9984 141.824C31.3305 141.664 31.6996 141.584 32.1059 141.584C32.9965 141.584 33.598 141.895 33.9105 142.516C34.0824 142.855 34.1684 143.342 34.1684 143.975V148H33.0961V144.045C33.0961 143.662 33.0395 143.354 32.9262 143.119C32.7387 142.729 32.3988 142.533 31.9066 142.533C31.6566 142.533 31.4516 142.559 31.2914 142.609C31.0023 142.695 30.7484 142.867 30.5297 143.125C30.3539 143.332 30.2387 143.547 30.184 143.77C30.1332 143.988 30.1078 144.303 30.1078 144.713V148H29.0531V141.725ZM38.702 139.393H39.7566V148H38.702V139.393ZM41.9531 146.33C41.9531 146.635 42.0645 146.875 42.2871 147.051C42.5098 147.227 42.7734 147.314 43.0781 147.314C43.4492 147.314 43.8086 147.229 44.1562 147.057C44.7422 146.771 45.0352 146.305 45.0352 145.656V144.807C44.9062 144.889 44.7402 144.957 44.5371 145.012C44.334 145.066 44.1348 145.105 43.9395 145.129L43.3008 145.211C42.918 145.262 42.6309 145.342 42.4395 145.451C42.1152 145.635 41.9531 145.928 41.9531 146.33ZM44.5078 144.197C44.75 144.166 44.9121 144.064 44.9941 143.893C45.041 143.799 45.0645 143.664 45.0645 143.488C45.0645 143.129 44.9355 142.869 44.6777 142.709C44.4238 142.545 44.0586 142.463 43.582 142.463C43.0312 142.463 42.6406 142.611 42.4102 142.908C42.2812 143.072 42.1973 143.316 42.1582 143.641H41.1738C41.1934 142.867 41.4434 142.33 41.9238 142.029C42.4082 141.725 42.9688 141.572 43.6055 141.572C44.3438 141.572 44.9434 141.713 45.4043 141.994C45.8613 142.275 46.0898 142.713 46.0898 143.307V146.922C46.0898 147.031 46.1113 147.119 46.1543 147.186C46.2012 147.252 46.2969 147.285 46.4414 147.285C46.4883 147.285 46.541 147.283 46.5996 147.279C46.6582 147.271 46.7207 147.262 46.7871 147.25V148.029C46.623 148.076 46.498 148.105 46.4121 148.117C46.3262 148.129 46.209 148.135 46.0605 148.135C45.6973 148.135 45.4336 148.006 45.2695 147.748C45.1836 147.611 45.123 147.418 45.0879 147.168C44.873 147.449 44.5645 147.693 44.1621 147.9C43.7598 148.107 43.3164 148.211 42.832 148.211C42.25 148.211 41.7734 148.035 41.4023 147.684C41.0352 147.328 40.8516 146.885 40.8516 146.354C40.8516 145.771 41.0332 145.32 41.3965 145C41.7598 144.68 42.2363 144.482 42.8262 144.408L44.5078 144.197ZM43.4121 148.744H44.5078V149.963H43.4121V148.744ZM47.6242 141.754H48.6965V148H47.6242V141.754ZM47.6242 139.393H48.6965V140.588H47.6242V139.393Z" fill="black"/>
<circle cx="4" cy="176" r="4" fill="#F579BA"/>
<path d="M23.1777 163.393V164.418H20.2773V172H19.0938V164.418H16.1934V163.393H23.1777ZM26.3996 171.32C27.0988 171.32 27.5773 171.057 27.8352 170.529C28.0969 169.998 28.2277 169.408 28.2277 168.76C28.2277 168.174 28.134 167.697 27.9465 167.33C27.6496 166.752 27.1379 166.463 26.4113 166.463C25.7668 166.463 25.298 166.709 25.0051 167.201C24.7121 167.693 24.5656 168.287 24.5656 168.982C24.5656 169.65 24.7121 170.207 25.0051 170.652C25.298 171.098 25.7629 171.32 26.3996 171.32ZM26.4406 165.543C27.2492 165.543 27.9328 165.812 28.4914 166.352C29.05 166.891 29.3293 167.684 29.3293 168.73C29.3293 169.742 29.0832 170.578 28.591 171.238C28.0988 171.898 27.3352 172.229 26.3 172.229C25.4367 172.229 24.7512 171.938 24.2434 171.355C23.7355 170.77 23.4816 169.984 23.4816 169C23.4816 167.945 23.7492 167.105 24.2844 166.48C24.8195 165.855 25.5383 165.543 26.4406 165.543ZM27.0734 163.328L28.2688 165.021H27.3078L26.5168 163.896L25.7258 165.021H24.7707L25.9602 163.328H27.0734ZM28.2043 162.438C28.1457 162.398 28.0852 162.371 28.0227 162.355C27.9641 162.336 27.8898 162.326 27.8 162.326C27.7063 162.326 27.5793 162.338 27.4191 162.361L27.3957 161.898C27.4816 161.887 27.5656 161.877 27.6477 161.869C27.7336 161.861 27.8156 161.857 27.8938 161.857C28.093 161.857 28.2766 161.891 28.4445 161.957C28.6125 162.02 28.7609 162.143 28.8898 162.326C28.925 162.377 28.9543 162.443 28.9777 162.525C29.0051 162.607 29.0188 162.695 29.0188 162.789C29.0188 162.867 29.007 162.947 28.9836 163.029C28.9602 163.111 28.9191 163.189 28.8605 163.264C28.802 163.334 28.7219 163.396 28.6203 163.451C28.5227 163.506 28.3996 163.549 28.2512 163.58L28.2277 163.838H27.7121V163.393C27.9465 163.369 28.1262 163.301 28.2512 163.188C28.3801 163.07 28.4445 162.945 28.4445 162.812C28.4445 162.742 28.425 162.676 28.3859 162.613C28.3469 162.547 28.2863 162.488 28.2043 162.438ZM30.3891 165.725H31.391V166.615C31.6879 166.248 32.0023 165.984 32.3344 165.824C32.6664 165.664 33.0355 165.584 33.4418 165.584C34.3324 165.584 34.934 165.895 35.2465 166.516C35.4184 166.855 35.5043 167.342 35.5043 167.975V172H34.432V168.045C34.432 167.662 34.3754 167.354 34.2621 167.119C34.0746 166.729 33.7348 166.533 33.2426 166.533C32.9926 166.533 32.7875 166.559 32.6273 166.609C32.3383 166.695 32.0844 166.867 31.8656 167.125C31.6898 167.332 31.5746 167.547 31.5199 167.77C31.4691 167.988 31.4438 168.303 31.4438 168.713V172H30.3891V165.725ZM39.0836 165.613C39.5758 165.613 40.0055 165.734 40.3727 165.977C40.5719 166.113 40.775 166.312 40.982 166.574V165.783H41.9547V171.49C41.9547 172.287 41.8375 172.916 41.6031 173.377C41.1656 174.229 40.3395 174.654 39.1246 174.654C38.4488 174.654 37.8805 174.502 37.4195 174.197C36.9586 173.896 36.7008 173.424 36.6461 172.779H37.7184C37.7691 173.061 37.8707 173.277 38.023 173.43C38.2613 173.664 38.6363 173.781 39.148 173.781C39.9566 173.781 40.4859 173.496 40.7359 172.926C40.8844 172.59 40.9527 171.99 40.941 171.127C40.7301 171.447 40.4762 171.686 40.1793 171.842C39.8824 171.998 39.4898 172.076 39.0016 172.076C38.3219 172.076 37.7262 171.836 37.2145 171.355C36.7066 170.871 36.4527 170.072 36.4527 168.959C36.4527 167.908 36.7086 167.088 37.2203 166.498C37.7359 165.908 38.357 165.613 39.0836 165.613ZM40.982 168.836C40.982 168.059 40.8219 167.482 40.5016 167.107C40.1812 166.732 39.773 166.545 39.277 166.545C38.5348 166.545 38.027 166.893 37.7535 167.588C37.609 167.959 37.5367 168.445 37.5367 169.047C37.5367 169.754 37.6793 170.293 37.9645 170.664C38.2535 171.031 38.6402 171.215 39.1246 171.215C39.8824 171.215 40.4156 170.873 40.7242 170.189C40.8961 169.803 40.982 169.352 40.982 168.836ZM46.4883 163.363H47.543V166.574C47.793 166.258 48.0176 166.035 48.2168 165.906C48.5566 165.684 48.9805 165.572 49.4883 165.572C50.3984 165.572 51.0156 165.891 51.3398 166.527C51.5156 166.875 51.6035 167.357 51.6035 167.975V172H50.5195V168.045C50.5195 167.584 50.4609 167.246 50.3438 167.031C50.1523 166.688 49.793 166.516 49.2656 166.516C48.8281 166.516 48.4316 166.666 48.0762 166.967C47.7207 167.268 47.543 167.836 47.543 168.672V172H46.4883V163.363ZM53.7766 170.33C53.7766 170.635 53.8879 170.875 54.1105 171.051C54.3332 171.227 54.5969 171.314 54.9016 171.314C55.2727 171.314 55.632 171.229 55.9797 171.057C56.5656 170.771 56.8586 170.305 56.8586 169.656V168.807C56.7297 168.889 56.5637 168.957 56.3605 169.012C56.1574 169.066 55.9582 169.105 55.7629 169.129L55.1242 169.211C54.7414 169.262 54.4543 169.342 54.2629 169.451C53.9387 169.635 53.7766 169.928 53.7766 170.33ZM56.3312 168.197C56.5734 168.166 56.7355 168.064 56.8176 167.893C56.8645 167.799 56.8879 167.664 56.8879 167.488C56.8879 167.129 56.759 166.869 56.5012 166.709C56.2473 166.545 55.882 166.463 55.4055 166.463C54.8547 166.463 54.4641 166.611 54.2336 166.908C54.1047 167.072 54.0207 167.316 53.9816 167.641H52.9973C53.0168 166.867 53.2668 166.33 53.7473 166.029C54.2316 165.725 54.7922 165.572 55.4289 165.572C56.1672 165.572 56.7668 165.713 57.2277 165.994C57.6848 166.275 57.9133 166.713 57.9133 167.307V170.922C57.9133 171.031 57.9348 171.119 57.9777 171.186C58.0246 171.252 58.1203 171.285 58.2648 171.285C58.3117 171.285 58.3645 171.283 58.423 171.279C58.4816 171.271 58.5441 171.262 58.6105 171.25V172.029C58.4465 172.076 58.3215 172.105 58.2355 172.117C58.1496 172.129 58.0324 172.135 57.884 172.135C57.5207 172.135 57.257 172.006 57.093 171.748C57.007 171.611 56.9465 171.418 56.9113 171.168C56.6965 171.449 56.3879 171.693 55.9855 171.9C55.5832 172.107 55.1398 172.211 54.6555 172.211C54.0734 172.211 53.5969 172.035 53.2258 171.684C52.8586 171.328 52.675 170.885 52.675 170.354C52.675 169.771 52.8566 169.32 53.2199 169C53.5832 168.68 54.0598 168.482 54.6496 168.408L56.3312 168.197ZM55.2355 172.744H56.3312V173.963H55.2355V172.744ZM59.4477 165.725H60.4496V166.615C60.7465 166.248 61.0609 165.984 61.393 165.824C61.725 165.664 62.0941 165.584 62.5004 165.584C63.391 165.584 63.9926 165.895 64.3051 166.516C64.477 166.855 64.5629 167.342 64.5629 167.975V172H63.4906V168.045C63.4906 167.662 63.434 167.354 63.3207 167.119C63.1332 166.729 62.7934 166.533 62.3012 166.533C62.0512 166.533 61.8461 166.559 61.6859 166.609C61.3969 166.695 61.143 166.867 60.9242 167.125C60.7484 167.332 60.6332 167.547 60.5785 167.77C60.5277 167.988 60.5023 168.303 60.5023 168.713V172H59.4477V165.725ZM69.0672 165.725H70.1102V166.615C70.3602 166.307 70.5867 166.082 70.7898 165.941C71.1375 165.703 71.532 165.584 71.9734 165.584C72.4734 165.584 72.8758 165.707 73.1805 165.953C73.3523 166.094 73.5086 166.301 73.6492 166.574C73.8836 166.238 74.159 165.99 74.4754 165.83C74.7918 165.666 75.1473 165.584 75.5418 165.584C76.3855 165.584 76.9598 165.889 77.2645 166.498C77.4285 166.826 77.5105 167.268 77.5105 167.822V172H76.4148V167.641C76.4148 167.223 76.3094 166.936 76.0984 166.779C75.8914 166.623 75.6375 166.545 75.3367 166.545C74.9227 166.545 74.5652 166.684 74.2645 166.961C73.9676 167.238 73.8191 167.701 73.8191 168.35V172H72.7469V167.904C72.7469 167.479 72.6961 167.168 72.5945 166.973C72.4344 166.68 72.1355 166.533 71.698 166.533C71.2996 166.533 70.9363 166.688 70.6082 166.996C70.284 167.305 70.1219 167.863 70.1219 168.672V172H69.0672V165.725ZM79.918 165.725V169.891C79.918 170.211 79.9688 170.473 80.0703 170.676C80.2578 171.051 80.6074 171.238 81.1191 171.238C81.8535 171.238 82.3535 170.91 82.6191 170.254C82.7637 169.902 82.8359 169.42 82.8359 168.807V165.725H83.8906V166.633C83.9688 166.637 84.0547 166.629 84.1484 166.609C84.3359 166.598 84.5059 166.561 84.6582 166.498L84.7227 166.469C84.7422 166.457 84.7617 166.441 84.7812 166.422L84.541 165.836L85.7188 165.344L86.1992 166.504L85.1035 166.955C84.6855 167.131 84.2812 167.211 83.8906 167.195V172H82.8945L82.9062 171.074C82.7695 171.312 82.5996 171.514 82.3965 171.678C81.9941 172.006 81.5059 172.17 80.9316 172.17C80.0371 172.17 79.4277 171.871 79.1035 171.273C78.9277 170.953 78.8398 170.525 78.8398 169.99V165.725H79.918ZM82.8242 163.311L81.2598 165.004H80.4512L81.5234 163.311H82.8242ZM89.4621 165.543C90.1691 165.543 90.7434 165.715 91.1848 166.059C91.6301 166.402 91.8977 166.994 91.9875 167.834H90.9621C90.8996 167.447 90.757 167.127 90.5344 166.873C90.3117 166.615 89.9543 166.486 89.4621 166.486C88.7902 166.486 88.3098 166.814 88.0207 167.471C87.8332 167.896 87.7395 168.422 87.7395 169.047C87.7395 169.676 87.8723 170.205 88.1379 170.635C88.4035 171.064 88.8215 171.279 89.3918 171.279C89.8293 171.279 90.175 171.146 90.4289 170.881C90.6867 170.611 90.8645 170.244 90.9621 169.779H91.9875C91.8703 170.611 91.5773 171.221 91.1086 171.607C90.6398 171.99 90.0402 172.182 89.3098 172.182C88.4895 172.182 87.8352 171.883 87.3469 171.285C86.8586 170.684 86.6145 169.934 86.6145 169.035C86.6145 167.934 86.882 167.076 87.4172 166.463C87.9523 165.85 88.634 165.543 89.4621 165.543ZM16.9844 179.973H18.0508V181.725H19.0527V182.586H18.0508V186.682C18.0508 186.9 18.125 187.047 18.2734 187.121C18.3555 187.164 18.4922 187.186 18.6836 187.186C18.7344 187.186 18.7891 187.186 18.8477 187.186C18.9062 187.182 18.9746 187.176 19.0527 187.168V188C18.9316 188.035 18.8047 188.061 18.6719 188.076C18.543 188.092 18.4023 188.1 18.25 188.1C17.7578 188.1 17.4238 187.975 17.248 187.725C17.0723 187.471 16.9844 187.143 16.9844 186.74V182.586H16.1348V181.725H16.9844V179.973ZM19.9133 179.363H20.968V182.574C21.218 182.258 21.4426 182.035 21.6418 181.906C21.9816 181.684 22.4055 181.572 22.9133 181.572C23.8234 181.572 24.4406 181.891 24.7648 182.527C24.9406 182.875 25.0285 183.357 25.0285 183.975V188H23.9445V184.045C23.9445 183.584 23.8859 183.246 23.7687 183.031C23.5773 182.688 23.218 182.516 22.6906 182.516C22.2531 182.516 21.8566 182.666 21.5012 182.967C21.1457 183.268 20.968 183.836 20.968 184.672V188H19.9133V179.363ZM29.0063 181.584C29.4516 181.584 29.8832 181.689 30.3012 181.9C30.7191 182.107 31.0375 182.377 31.2563 182.709C31.4672 183.025 31.6078 183.395 31.6781 183.816C31.7406 184.105 31.7719 184.566 31.7719 185.199H27.1723C27.1918 185.836 27.3422 186.348 27.6234 186.734C27.9047 187.117 28.3402 187.309 28.9301 187.309C29.4809 187.309 29.9203 187.127 30.2484 186.764C30.4359 186.553 30.5688 186.309 30.6469 186.031H31.684C31.6566 186.262 31.5648 186.52 31.4086 186.805C31.2563 187.086 31.0844 187.316 30.893 187.496C30.5727 187.809 30.1762 188.02 29.7035 188.129C29.4496 188.191 29.1625 188.223 28.8422 188.223C28.0609 188.223 27.3988 187.939 26.8559 187.373C26.3129 186.803 26.0414 186.006 26.0414 184.982C26.0414 183.975 26.3148 183.156 26.8617 182.527C27.4086 181.898 28.1234 181.584 29.0063 181.584ZM30.6879 184.361C30.6449 183.904 30.5453 183.539 30.3891 183.266C30.1 182.758 29.6176 182.504 28.9418 182.504C28.4574 182.504 28.0512 182.68 27.723 183.031C27.3949 183.379 27.2211 183.822 27.2016 184.361H30.6879ZM28.9711 179.51C28.9125 179.471 28.852 179.443 28.7895 179.428C28.7309 179.408 28.6566 179.398 28.5668 179.398C28.473 179.398 28.3461 179.41 28.1859 179.434L28.1625 178.971C28.2484 178.959 28.3324 178.949 28.4145 178.941C28.5004 178.934 28.5824 178.93 28.6605 178.93C28.8598 178.93 29.0434 178.963 29.2113 179.029C29.3793 179.092 29.5277 179.215 29.6566 179.398C29.6918 179.449 29.7211 179.516 29.7445 179.598C29.7719 179.68 29.7855 179.768 29.7855 179.861C29.7855 179.939 29.7738 180.02 29.7504 180.102C29.727 180.184 29.6859 180.262 29.6273 180.336C29.5688 180.406 29.4887 180.469 29.3871 180.523C29.2895 180.578 29.1664 180.621 29.018 180.652L28.9945 180.91H28.4789V180.465C28.7133 180.441 28.893 180.373 29.018 180.26C29.1469 180.143 29.2113 180.018 29.2113 179.885C29.2113 179.814 29.1918 179.748 29.1527 179.686C29.1137 179.619 29.0531 179.561 28.9711 179.51ZM36.2234 179.973H37.2898V181.725H38.2918V182.586H37.2898V186.682C37.2898 186.9 37.3641 187.047 37.5125 187.121C37.5945 187.164 37.7313 187.186 37.9227 187.186C37.9734 187.186 38.0281 187.186 38.0867 187.186C38.1453 187.182 38.2137 187.176 38.2918 187.168V188C38.1707 188.035 38.0438 188.061 37.9109 188.076C37.782 188.092 37.6414 188.1 37.4891 188.1C36.9969 188.1 36.6629 187.975 36.4871 187.725C36.3113 187.471 36.2234 187.143 36.2234 186.74V182.586H35.3738V181.725H36.2234V179.973ZM39.4863 181.754H40.5586V188H39.4863V181.754ZM41.3555 179.199L39.791 180.893H38.9824L40.0547 179.199H41.3555ZM42.2922 181.725H43.2941V182.615C43.591 182.248 43.9055 181.984 44.2375 181.824C44.5695 181.664 44.9387 181.584 45.3449 181.584C46.2355 181.584 46.8371 181.895 47.1496 182.516C47.3215 182.855 47.4074 183.342 47.4074 183.975V188H46.3352V184.045C46.3352 183.662 46.2785 183.354 46.1652 183.119C45.9777 182.729 45.6379 182.533 45.1457 182.533C44.8957 182.533 44.6906 182.559 44.5305 182.609C44.2414 182.695 43.9875 182.867 43.7687 183.125C43.593 183.332 43.4777 183.547 43.423 183.77C43.3723 183.988 43.3469 184.303 43.3469 184.713V188H42.2922V181.725ZM52.5797 184.936C52.5797 185.607 52.7223 186.17 53.0074 186.623C53.2926 187.076 53.7496 187.303 54.3785 187.303C54.8668 187.303 55.2672 187.094 55.5797 186.676C55.8961 186.254 56.0543 185.65 56.0543 184.865C56.0543 184.072 55.8922 183.486 55.568 183.107C55.2438 182.725 54.8434 182.533 54.3668 182.533C53.8355 182.533 53.4039 182.736 53.0719 183.143C52.7438 183.549 52.5797 184.146 52.5797 184.936ZM54.1676 181.613C54.648 181.613 55.0504 181.715 55.3746 181.918C55.5621 182.035 55.775 182.24 56.0133 182.533V179.363H57.027V188H56.0777V187.127C55.8316 187.514 55.5406 187.793 55.2047 187.965C54.8688 188.137 54.484 188.223 54.0504 188.223C53.3512 188.223 52.7457 187.93 52.234 187.344C51.7223 186.754 51.4664 185.971 51.4664 184.994C51.4664 184.08 51.6988 183.289 52.1637 182.621C52.6324 181.949 53.3004 181.613 54.1676 181.613ZM59.4461 181.725V185.891C59.4461 186.211 59.4969 186.473 59.5984 186.676C59.7859 187.051 60.1355 187.238 60.6473 187.238C61.3816 187.238 61.8816 186.91 62.1473 186.254C62.2918 185.902 62.3641 185.42 62.3641 184.807V181.725H63.4188V188H62.4227L62.4344 187.074C62.2977 187.312 62.1277 187.514 61.9246 187.678C61.5223 188.006 61.034 188.17 60.4598 188.17C59.5652 188.17 58.9559 187.871 58.6316 187.273C58.4559 186.953 58.368 186.525 58.368 185.99V181.725H59.4461ZM60.2605 188.762H61.3563V189.98H60.2605V188.762ZM64.8711 181.725H65.873V182.615C66.1699 182.248 66.4844 181.984 66.8164 181.824C67.1484 181.664 67.5176 181.584 67.9238 181.584C68.8145 181.584 69.416 181.895 69.7285 182.516C69.9004 182.855 69.9863 183.342 69.9863 183.975V188H68.9141V184.045C68.9141 183.662 68.8574 183.354 68.7441 183.119C68.5566 182.729 68.2168 182.533 67.7246 182.533C67.4746 182.533 67.2695 182.559 67.1094 182.609C66.8203 182.695 66.5664 182.867 66.3477 183.125C66.1719 183.332 66.0566 183.547 66.002 183.77C65.9512 183.988 65.9258 184.303 65.9258 184.713V188H64.8711V181.725ZM73.5656 181.613C74.0578 181.613 74.4875 181.734 74.8547 181.977C75.0539 182.113 75.257 182.312 75.4641 182.574V181.783H76.4367V187.49C76.4367 188.287 76.3195 188.916 76.0852 189.377C75.6477 190.229 74.8215 190.654 73.6066 190.654C72.9309 190.654 72.3625 190.502 71.9016 190.197C71.4406 189.896 71.1828 189.424 71.1281 188.779H72.2004C72.2512 189.061 72.3527 189.277 72.5051 189.43C72.7434 189.664 73.1184 189.781 73.6301 189.781C74.4387 189.781 74.968 189.496 75.218 188.926C75.3664 188.59 75.4348 187.99 75.423 187.127C75.2121 187.447 74.9582 187.686 74.6613 187.842C74.3645 187.998 73.9719 188.076 73.4836 188.076C72.8039 188.076 72.2082 187.836 71.6965 187.355C71.1887 186.871 70.9348 186.072 70.9348 184.959C70.9348 183.908 71.1906 183.088 71.7023 182.498C72.218 181.908 72.8391 181.613 73.5656 181.613ZM75.4641 184.836C75.4641 184.059 75.3039 183.482 74.9836 183.107C74.6633 182.732 74.2551 182.545 73.759 182.545C73.0168 182.545 72.509 182.893 72.2355 183.588C72.091 183.959 72.0187 184.445 72.0187 185.047C72.0187 185.754 72.1613 186.293 72.4465 186.664C72.7355 187.031 73.1223 187.215 73.6066 187.215C74.3645 187.215 74.8977 186.873 75.2062 186.189C75.3781 185.803 75.4641 185.352 75.4641 184.836Z" fill="black"/>
</svg>
