<svg width="28" height="28" viewBox="0 0 28 28" fill="none" xmlns="http://www.w3.org/2000/svg">
<rect width="28" height="28" rx="4" fill="#10B981"/>
<path d="M13.9998 13.5C13.7237 13.5 13.4998 13.7239 13.4998 14C13.4998 14.2761 13.7237 14.5 13.9998 14.5V13.5ZM16.4998 14.5C16.776 14.5 16.9998 14.2761 16.9998 14C16.9998 13.7239 16.776 13.5 16.4998 13.5V14.5ZM13.9998 16.8333C13.7237 16.8333 13.4998 17.0572 13.4998 17.3333C13.4998 17.6095 13.7237 17.8333 13.9998 17.8333V16.8333ZM16.4998 17.8333C16.776 17.8333 16.9998 17.6095 16.9998 17.3333C16.9998 17.0572 16.776 16.8333 16.4998 16.8333V17.8333ZM11.4998 13.5C11.2237 13.5 10.9998 13.7239 10.9998 14C10.9998 14.2761 11.2237 14.5 11.4998 14.5V13.5ZM11.5082 14.5C11.7843 14.5 12.0082 14.2761 12.0082 14C12.0082 13.7239 11.7843 13.5 11.5082 13.5V14.5ZM11.4998 16.8333C11.2237 16.8333 10.9998 17.0572 10.9998 17.3333C10.9998 17.6095 11.2237 17.8333 11.4998 17.8333V16.8333ZM11.5082 17.8333C11.7843 17.8333 12.0082 17.6095 12.0082 17.3333C12.0082 17.0572 11.7843 16.8333 11.5082 16.8333V17.8333ZM19.3332 9.83333V19.8333H20.3332V9.83333H19.3332ZM18.1665 21H9.83317V22H18.1665V21ZM8.6665 19.8333V9.83333H7.6665V19.8333H8.6665ZM9.83317 8.66667H11.4998V7.66667H9.83317V8.66667ZM16.4998 8.66667H18.1665V7.66667H16.4998V8.66667ZM9.83317 21C9.18884 21 8.6665 20.4777 8.6665 19.8333H7.6665C7.6665 21.03 8.63655 22 9.83317 22V21ZM19.3332 19.8333C19.3332 20.4777 18.8108 21 18.1665 21V22C19.3631 22 20.3332 21.03 20.3332 19.8333H19.3332ZM20.3332 9.83333C20.3332 8.63672 19.3631 7.66667 18.1665 7.66667V8.66667C18.8108 8.66667 19.3332 9.189 19.3332 9.83333H20.3332ZM8.6665 9.83333C8.6665 9.189 9.18884 8.66667 9.83317 8.66667V7.66667C8.63655 7.66667 7.6665 8.63672 7.6665 9.83333H8.6665ZM13.9998 14.5H16.4998V13.5H13.9998V14.5ZM13.9998 17.8333H16.4998V16.8333H13.9998V17.8333ZM13.1665 7H14.8332V6H13.1665V7ZM14.8332 9.33333H13.1665V10.3333H14.8332V9.33333ZM13.1665 9.33333C12.5222 9.33333 11.9998 8.811 11.9998 8.16667H10.9998C10.9998 9.36328 11.9699 10.3333 13.1665 10.3333V9.33333ZM15.9998 8.16667C15.9998 8.811 15.4775 9.33333 14.8332 9.33333V10.3333C16.0298 10.3333 16.9998 9.36328 16.9998 8.16667H15.9998ZM14.8332 7C15.4775 7 15.9998 7.52233 15.9998 8.16667H16.9998C16.9998 6.97005 16.0298 6 14.8332 6V7ZM13.1665 6C11.9699 6 10.9998 6.97005 10.9998 8.16667H11.9998C11.9998 7.52233 12.5222 7 13.1665 7V6ZM11.4998 14.5H11.5082V13.5H11.4998V14.5ZM11.4998 17.8333H11.5082V16.8333H11.4998V17.8333Z" fill="white"/>
</svg>
