<svg width="26" height="26" viewBox="0 0 26 26" fill="none" xmlns="http://www.w3.org/2000/svg">
<rect width="26" height="26" rx="4" fill="#06B6D4"/>
<path d="M9.25 19.75C7.59315 19.75 6.25 18.4069 6.25 16.75V7.75C6.25 6.92157 6.92157 6.25 7.75 6.25H10.75C11.5784 6.25 12.25 6.92157 12.25 7.75V16.75C12.25 18.4069 10.9069 19.75 9.25 19.75ZM9.25 19.75H18.25C19.0784 19.75 19.75 19.0784 19.75 18.25V15.25C19.75 14.4216 19.0784 13.75 18.25 13.75H16.4926M12.25 9.50734L13.4926 8.26472C14.0784 7.67893 15.0282 7.67893 15.614 8.26472L17.7353 10.386C18.3211 10.9718 18.3211 11.9216 17.7353 12.5074L11.3713 18.8713M9.25 16.75H9.2575" stroke="white" stroke-linecap="round" stroke-linejoin="round"/>
</svg>
