<svg width="208" height="200" viewBox="0 0 208 200" fill="none" xmlns="http://www.w3.org/2000/svg">
<path d="M42.3881 196.217H165.609C168.996 196.225 172.261 194.945 174.749 192.634C185.129 182.966 193.433 171.263 199.151 158.246C204.868 145.229 207.878 131.173 207.996 116.942C208.527 59.0771 161.771 11.465 104.251 11.3284C46.6981 11.1918 6.8338e-05 58.0871 6.8338e-05 115.955C-0.0163659 130.358 2.93152 144.608 8.65812 157.809C14.3847 171.009 22.766 182.874 33.2742 192.656C35.7572 194.956 39.0125 196.228 42.3881 196.217Z" fill="#EFF1F8"/>
<path d="M161.539 20.75H46.6517C43.2236 20.75 40.4446 23.529 40.4446 26.9571V190.032C40.4446 193.46 43.2236 196.239 46.6517 196.239H161.539C164.967 196.239 167.746 193.46 167.746 190.032V26.9571C167.746 23.529 164.967 20.75 161.539 20.75Z" fill="white" stroke="#D4D9E3" stroke-width="6" stroke-miterlimit="10"/>
<path d="M156.27 27.7236H52.2737C50.0411 27.7236 48.2312 29.5335 48.2312 31.7661V185.154C48.2312 187.386 50.0411 189.196 52.2737 189.196H156.27C158.502 189.196 160.312 187.386 160.312 185.154V31.7661C160.312 29.5335 158.502 27.7236 156.27 27.7236Z" fill="white" stroke="#D4D9E3" stroke-width="6" stroke-miterlimit="10"/>
<path d="M68.7697 77.2913C74.7494 77.2913 79.5969 72.4437 79.5969 66.464C79.5969 60.4843 74.7494 55.6367 68.7697 55.6367C62.7899 55.6367 57.9424 60.4843 57.9424 66.464C57.9424 72.4437 62.7899 77.2913 68.7697 77.2913Z" fill="#3B82F6"/>
<path d="M68.7697 108.266C74.7494 108.266 79.5969 103.418 79.5969 97.4386C79.5969 91.4589 74.7494 86.6113 68.7697 86.6113C62.7899 86.6113 57.9424 91.4589 57.9424 97.4386C57.9424 103.418 62.7899 108.266 68.7697 108.266Z" fill="#3B82F6"/>
<path d="M68.7697 139.24C74.7494 139.24 79.5969 134.392 79.5969 128.412C79.5969 122.433 74.7494 117.585 68.7697 117.585C62.7899 117.585 57.9424 122.433 57.9424 128.412C57.9424 134.392 62.7899 139.24 68.7697 139.24Z" fill="#3B82F6"/>
<path d="M66.6059 71.7876C66.4122 71.7878 66.2205 71.7498 66.0416 71.6757C65.8627 71.6016 65.7002 71.4929 65.5635 71.3558L62.5611 68.3535C62.2856 68.0768 62.1312 67.7022 62.1316 67.3118C62.132 66.9214 62.2873 66.5471 62.5634 66.271C62.8394 65.995 63.2137 65.8397 63.6041 65.8392C63.9945 65.8388 64.3692 65.9932 64.6459 66.2687L66.6059 68.2286L72.1737 62.6607C72.3105 62.5233 72.4731 62.4142 72.6521 62.3397C72.831 62.2652 73.023 62.2268 73.2168 62.2266C73.4107 62.2263 73.6027 62.2644 73.7819 62.3385C73.961 62.4126 74.1238 62.5213 74.2609 62.6583C74.398 62.7954 74.5067 62.9582 74.5808 63.1374C74.6549 63.3165 74.6929 63.5085 74.6927 63.7024C74.6925 63.8963 74.654 64.0882 74.5795 64.2672C74.505 64.4462 74.396 64.6087 74.2586 64.7455L67.6483 71.3558C67.5115 71.4929 67.349 71.6016 67.1701 71.6757C66.9913 71.7498 66.7995 71.7878 66.6059 71.7876Z" fill="white"/>
<path d="M148.016 63.1475H90.4252C88.5938 63.1475 87.1091 64.6321 87.1091 66.4635V66.4635C87.1091 68.2949 88.5938 69.7795 90.4252 69.7795H148.016C149.847 69.7795 151.332 68.2949 151.332 66.4635C151.332 64.6321 149.847 63.1475 148.016 63.1475Z" fill="#D4D9E3"/>
<path d="M66.6059 102.762C66.4122 102.763 66.2205 102.725 66.0416 102.651C65.8627 102.576 65.7002 102.468 65.5635 102.331L62.5611 99.3283C62.2856 99.0517 62.1312 98.677 62.1316 98.2866C62.132 97.8962 62.2873 97.5219 62.5634 97.2459C62.8394 96.9698 63.2137 96.8145 63.6041 96.8141C63.9945 96.8136 64.3692 96.9681 64.6459 97.2435L66.6059 99.2034L72.1737 93.6355C72.4504 93.3601 72.8251 93.2056 73.2155 93.2061C73.6059 93.2065 73.9802 93.3618 74.2562 93.6378C74.5323 93.9139 74.6876 94.2882 74.688 94.6786C74.6885 95.069 74.534 95.4436 74.2586 95.7203L67.6483 102.331C67.5115 102.468 67.349 102.576 67.1701 102.651C66.9913 102.725 66.7995 102.763 66.6059 102.762Z" fill="white"/>
<path d="M148.016 94.1221H90.4252C88.5938 94.1221 87.1091 95.6067 87.1091 97.4381V97.4381C87.1091 99.2695 88.5938 100.754 90.4252 100.754H148.016C149.847 100.754 151.332 99.2695 151.332 97.4381C151.332 95.6067 149.847 94.1221 148.016 94.1221Z" fill="#D4D9E3"/>
<path d="M66.6059 133.738C66.4122 133.738 66.2205 133.7 66.0416 133.626C65.8627 133.552 65.7002 133.443 65.5635 133.306L62.5611 130.304C62.2856 130.027 62.1312 129.653 62.1316 129.262C62.132 128.872 62.2873 128.498 62.5634 128.221C62.8394 127.945 63.2137 127.79 63.6041 127.79C63.9945 127.789 64.3692 127.944 64.6459 128.219L66.6059 130.179L72.1737 124.611C72.4504 124.336 72.8251 124.181 73.2155 124.182C73.6059 124.182 73.9802 124.337 74.2562 124.613C74.5323 124.889 74.6876 125.264 74.688 125.654C74.6885 126.045 74.534 126.419 74.2586 126.696L67.6483 133.306C67.5115 133.443 67.349 133.552 67.1701 133.626C66.9913 133.7 66.7995 133.738 66.6059 133.738Z" fill="white"/>
<path d="M148.016 125.097H90.4252C88.5938 125.097 87.1091 126.581 87.1091 128.413C87.1091 130.244 88.5938 131.729 90.4252 131.729H148.016C149.847 131.729 151.332 130.244 151.332 128.413C151.332 126.581 149.847 125.097 148.016 125.097Z" fill="#D4D9E3"/>
<path d="M68.7697 170.215C74.7494 170.215 79.5969 165.368 79.5969 159.388C79.5969 153.408 74.7494 148.561 68.7697 148.561C62.7899 148.561 57.9424 153.408 57.9424 159.388C57.9424 165.368 62.7899 170.215 68.7697 170.215Z" fill="#D4D9E3"/>
<path d="M148.016 156.072H90.4252C88.5938 156.072 87.1091 157.557 87.1091 159.388V159.388C87.1091 161.22 88.5938 162.704 90.4252 162.704H148.016C149.847 162.704 151.332 161.22 151.332 159.388C151.332 157.557 149.847 156.072 148.016 156.072Z" fill="#D4D9E3"/>
<path d="M131.79 12.2371H123.448C121.729 12.222 120.051 11.7192 118.607 10.7873C117.163 9.8554 116.014 8.53269 115.293 6.97308C114.297 4.88579 112.731 3.12308 110.776 1.88901C108.82 0.654945 106.555 0 104.242 0C101.93 0 99.6648 0.654945 97.7091 1.88901C95.7535 3.12308 94.1874 4.88579 93.1922 6.97308C92.4708 8.53269 91.3214 9.85539 89.8777 10.7873C88.434 11.7192 86.7553 12.222 85.037 12.2371H76.6941C76.1069 12.2371 75.5253 12.3528 74.9828 12.5775C74.4402 12.8023 73.9472 13.1317 73.532 13.5469C73.1167 13.9622 72.7873 14.4552 72.5626 14.9977C72.3378 15.5403 72.2222 16.1218 72.2222 16.7091V33.7513C72.2222 34.9373 72.6933 36.0748 73.532 36.9134C74.3707 37.7521 75.5081 38.2233 76.6942 38.2233H131.79C132.378 38.2233 132.959 38.1076 133.502 37.8829C134.044 37.6581 134.537 37.3287 134.953 36.9134C135.368 36.4982 135.697 36.0052 135.922 35.4626C136.147 34.9201 136.262 34.3385 136.262 33.7513V16.7091C136.262 15.5231 135.791 14.3856 134.953 13.5469C134.114 12.7083 132.977 12.2371 131.79 12.2371Z" fill="#3B82F6"/>
<path d="M128.735 30.6787H79.2807C78.3074 30.6787 77.5183 31.4678 77.5183 32.4411V32.4411C77.5183 33.4145 78.3074 34.2035 79.2807 34.2035H128.735C129.708 34.2035 130.497 33.4145 130.497 32.4411C130.497 31.4678 129.708 30.6787 128.735 30.6787Z" fill="white"/>
</svg>
